<svg width="24" height="24" viewBox="0 0 24 24" fill="none" xmlns="http://www.w3.org/2000/svg">
<path d="M22 7.66667C22 6.47161 21.0035 5.5 19.7778 5.5H9.12847C8.53819 5.5 7.97222 5.72682 7.55556 6.13307L2.32639 11.2349C2.11806 11.438 2 11.7122 2 12C2 12.2878 2.11806 12.562 2.32639 12.7651L7.55556 17.8669C7.97222 18.2732 8.53819 18.5 9.12847 18.5H19.7778C21.0035 18.5 22 17.5284 22 16.3333V7.66667ZM11.4097 9.25781C11.7361 8.93958 12.2639 8.93958 12.5868 9.25781L14.2188 10.849L15.8507 9.25781C16.1771 8.93958 16.7049 8.93958 17.0278 9.25781C17.3507 9.57604 17.3542 10.0906 17.0278 10.4055L15.3958 11.9966L17.0278 13.5878C17.3542 13.906 17.3542 14.4206 17.0278 14.7354C16.7014 15.0503 16.1736 15.0536 15.8507 14.7354L14.2188 13.1443L12.5868 14.7354C12.2604 15.0536 11.7326 15.0536 11.4097 14.7354C11.0868 14.4172 11.0833 13.9026 11.4097 13.5878L13.0417 11.9966L11.4097 10.4055C11.0833 10.0872 11.0833 9.57266 11.4097 9.25781Z" fill="black"/>
</svg>
