<svg width="76" height="142" viewBox="0 0 76 142" fill="none" xmlns="http://www.w3.org/2000/svg">
<g clip-path="url(#clip0_11_7323)">
<path d="M0.108543 133.155C0.527954 131.321 2.09969 129.555 4.77999 127.905C6.67806 126.737 8.30198 126.356 9.72625 126.502L9.72735 126.49C9.82109 126.5 19.1392 127.447 22.3632 126.905C22.5496 126.873 22.7275 126.844 22.898 126.817C25.7368 126.355 26.4114 126.245 28.2139 121.25C30.0775 116.086 32.2119 107.656 32.8745 102.842C32.9462 102.322 32.974 101.841 32.9773 101.379C32.6979 101.426 32.1076 101.508 31.3749 101.508C29.8527 101.508 27.724 101.152 26.5358 99.3837C26.5011 99.3316 26.4998 99.2637 26.5327 99.2102L26.5973 99.124L26.6886 99.1345C26.8226 99.1499 27.422 99.2126 28.1071 99.1785C27.4472 98.8365 26.2995 98.0647 25.68 96.6155C24.976 94.9684 25.133 92.9196 26.1443 90.5264C25.6643 88.9045 25.8779 88.3751 26.1452 88.1296C26.5102 87.7944 27.1788 87.9101 28.1892 88.4844C28.9846 88.9366 30.0512 89.2694 31.0233 89.5038C29.7689 89.031 28.4657 88.3672 27.5982 87.4663C25.2469 85.0253 27.322 78.9469 27.5663 78.2618C27.8275 77.5298 27.8509 76.1493 27.8807 74.4016C27.9077 72.8226 27.9413 70.8578 28.1595 68.6863C28.2906 67.3825 28.7715 66.4963 29.5889 66.0523C29.9822 65.8387 30.4164 65.7474 30.8491 65.7307C30.4898 65.0238 29.1217 62.5923 26.5542 60.9119C25.3603 60.1307 23.7521 59.6583 22.0494 59.1581C19.7377 58.4791 17.1534 57.7199 15.2075 56.0109C15.0198 55.846 14.4275 55.3205 14.2527 55.1373C14.2527 55.1373 13.9555 55.3526 13.7444 55.505C13.4932 54.8468 13.5491 54.2269 13.5982 53.6909C13.378 54.0138 13.1567 54.5639 13.0209 54.5296C12.9016 54.4995 12.7738 53.2612 13.5102 51.587C13.4353 51.6499 13.3484 51.7282 13.2502 51.8238C13.1983 51.8746 13.1191 51.8872 13.0539 51.8551C12.9871 51.8223 12.9482 51.751 12.9571 51.678C13.2091 49.6044 14.2164 49.0158 15.1903 48.4466C15.6966 48.1508 16.2201 47.8448 16.6358 47.3242C17.7859 45.8838 17.6805 41.5329 17.6296 39.4416L17.6214 39.0946C17.583 37.3752 18.3846 36.6477 18.7282 36.4154C13.9195 30.2224 13.3743 27.4298 12.8485 24.7278C12.4799 22.8336 12.5301 18.3485 12.5706 14.7447C12.592 12.8354 12.6104 11.1867 12.5686 10.1778C12.4468 7.23956 11.2865 4.375 10.4245 2.476C10.082 1.72181 10.1388 1.20912 10.2469 0.911534C10.3433 0.646061 10.6033 0.477804 10.8868 0.501778C15.2109 0.879862 21.4655 12.7643 22.3742 17.2549C23.1237 20.9588 23.0428 24.7082 22.127 28.7174C21.8502 29.9288 21.7499 31.2109 21.7222 32.2483L22.464 31.1183C22.5743 30.187 24.8575 10.7039 24.2292 1.3677C24.2164 1.17723 24.3198 1.00655 24.4994 0.921872C24.6937 0.830375 24.919 0.862927 25.0722 1.00589C27.4001 3.17608 29.5047 7.31148 30.7019 12.0684C32.5153 19.2723 30.7551 25.0885 29.5444 27.9141C28.1728 31.1156 27.2327 34.0745 27.0017 34.8221C28.531 35.2106 29.5299 35.8559 29.8354 36.0727C30.1438 35.8191 30.4737 35.7338 30.8164 35.8183C32.1573 36.1488 33.2371 39.0893 33.3841 39.5069C35.2787 40.8323 35.6483 42.7879 35.7078 43.2128C36.4757 43.6034 36.6864 44.0532 36.7441 44.2591C43.674 45.7498 44.4717 48.513 44.5508 49.3272C44.5586 49.4062 44.5143 49.4805 44.4405 49.5118C44.3669 49.5437 44.2824 49.5239 44.23 49.4634C44.1743 49.3987 44.0812 49.3325 43.9817 49.2729C44.1595 49.7471 44.1332 50.2495 44.0916 50.5466C44.0792 50.635 44.0085 50.7017 43.9194 50.7087C43.8292 50.7175 43.7467 50.6599 43.7202 50.573C43.6846 50.4564 43.622 50.3539 43.5552 50.2693C43.611 51.0899 43.4226 51.658 43.293 51.9428C43.2548 52.0266 43.1672 52.0739 43.0755 52.0594C42.9828 52.0451 42.9132 51.9732 42.9026 51.8806C42.8712 51.61 42.8011 51.38 42.731 51.2056C42.1551 54.0398 39.8263 55.5198 38.2605 56.5152C36.6764 57.5224 35.4805 58.8361 35.3187 59.0176C35.1869 59.4456 35.0264 59.863 34.7996 60.2499C35.4129 63.178 35.4259 63.1859 37.6189 64.3341C37.6565 64.3536 37.6979 64.3754 37.7368 64.3959C38.1062 64.3281 40.3238 63.9624 41.855 64.6156C43.4485 65.2948 45.4938 68.3432 46.0845 70.3909C46.1548 70.6346 46.2809 70.8565 46.4533 71.0432C48.2231 72.9579 49.7303 75.0618 50.8681 77.2461C51.3686 77.2853 54.5822 77.4434 56.2295 75.2517C56.3058 75.0429 56.5952 74.2738 56.817 73.9683C56.2788 72.7641 56.2176 71.1853 56.1745 70.026L56.167 69.8256C56.1221 68.6674 54.6998 67.6937 53.4449 66.8348C53.0482 66.5636 52.6739 66.3072 52.3399 66.0472C51.7867 65.6168 51.5534 65.0414 51.6832 64.4271C51.8665 63.5596 52.748 62.7401 53.7794 62.4786C54.5621 62.2798 55.4509 62.4669 56.2189 62.9913C57.0865 63.5832 57.6549 64.5131 57.7785 65.5427C57.8986 66.5434 58.1685 67.256 58.4066 67.7177C58.4146 67.4232 58.5026 67.1955 58.5548 67.0869C58.2253 66.3105 58.4334 65.7259 58.5705 65.4663C58.3757 65.3212 58.0829 64.931 57.7752 63.9023C57.635 63.434 57.6494 63.0883 57.819 62.8453C58.0686 62.4874 58.5899 62.4522 59.0496 62.421C59.255 62.4071 59.4488 62.3939 59.6034 62.3557C60.2008 62.2072 60.058 61.4207 60.0515 61.3872L60.0179 61.2111L60.1979 61.2174C61.7765 61.2724 62.172 62.311 62.2561 62.6286C63.3969 63.0153 63.5041 64.0169 63.5105 64.3083C64.2552 64.9026 64.3721 65.9141 64.3902 66.2507C64.4939 66.2768 64.5888 66.2995 64.6717 66.3171C68.2233 58.7787 72.4519 58.7433 74.6624 59.3987L74.7143 59.4141C75.1968 59.554 75.9374 60.0891 75.996 60.793C76.0586 61.5454 75.3858 62.2639 73.9967 62.9295C71.1331 64.3011 69.1276 66.5243 68.6699 67.0603C68.8444 67.1867 68.9912 67.3394 69.0986 67.5265C69.6345 68.4596 69.3803 69.2089 69.2047 69.5448C69.2366 69.552 69.2684 69.5542 69.3002 69.5639C69.9374 69.7539 70.413 70.3414 70.7135 71.31C71.4097 73.5539 69.8351 75.3137 69.4327 75.6988C69.3255 75.8015 69.2693 75.851 69.2211 75.8759C69.306 76.0778 69.3891 76.3184 69.4705 76.6111C70.4855 77.5351 70.8264 78.9663 70.2803 80.0302C69.8112 80.9445 68.8194 81.2652 68.4234 81.3595C68.4616 81.4532 68.4924 81.5284 68.4999 81.5491C68.6133 81.8572 68.6166 81.9155 68.6582 82.0763C70.2642 82.2872 70.4543 83.599 70.4727 84.0343C70.8959 84.1077 72.0749 84.5808 72.2602 87.5578C72.4539 90.6702 70.7181 91.4994 70.2779 91.6586C70.1877 92.4348 69.9246 92.9596 69.4957 93.2196C69.138 93.4364 68.7581 93.4107 68.5342 93.3647C68.5417 95.9361 67.7603 98.5121 66.6076 99.6798C66.1563 100.137 65.6671 100.369 65.1532 100.369C64.7245 100.369 64.3589 100.212 64.0659 99.9046C63.2154 99.0094 63.2514 97.1034 63.2644 96.7706C62.5426 95.6506 62.2806 94.6039 62.4858 93.6588C62.6976 92.6831 63.3432 92.1232 63.5753 91.9492L63.4491 91.3648C63.0327 91.4717 62.717 91.4147 62.5088 91.1946C61.8455 90.4927 62.6438 88.3562 62.8121 87.931C61.8404 85.0735 63.8039 82.8659 64.235 82.4267C63.8985 82.5373 63.5797 82.5956 63.2821 82.5956C62.9233 82.5956 62.5939 82.5153 62.2958 82.3545C61.5152 81.9334 61.1784 81.0828 61.0602 80.69C60.3082 81.1255 59.0241 80.9863 58.7139 80.9443C58.4272 81.1983 56.9664 82.3517 54.0653 82.3517C53.7104 82.3517 53.3288 82.3299 52.9302 82.2914C55.4617 90.4951 53.7412 97.0211 53.6786 97.2498C52.7752 104.943 51.4221 111.633 50.3348 117.009L50.2581 117.388C49.4712 121.28 49.1097 125.374 48.9738 127.265C51.7681 128.434 59.2103 128.438 59.6905 128.436C60.3823 128.029 61.128 127.721 61.9027 127.538C63.0212 127.272 64.6852 127.022 66.2596 127.335C68.5129 127.783 72.2293 129.859 73.3458 132.591C73.9239 134.005 73.7495 135.414 72.8278 136.778C72.8923 137.245 72.7884 137.671 72.5171 138.05C71.2083 139.879 66.3672 140.011 65.5581 140.02C65.4468 140.325 65.2295 140.586 64.9085 140.798C64.1271 141.313 62.7975 141.5 61.2793 141.5C57.6487 141.5 52.9439 140.426 52.1097 140.18C52.006 140.149 41.6813 137.028 40.0527 133.762C39.8 133.255 39.7511 132.759 39.938 132.298C39.9802 132.194 40.0761 131.978 40.1159 131.885C40.8013 130.27 43.3399 124.073 44.5225 118.191C45.7947 111.863 45.4487 105.707 45.3907 104.834C44.5579 104.639 43.4257 104.517 41.9322 104.63L41.9181 104.631C41.8389 104.636 40.5124 104.776 39.5289 107.328C38.6682 109.561 35.0954 120.206 33.3419 131.471C33.3068 131.696 33.2082 131.903 33.0569 132.069C32.1566 133.056 28.6125 136.472 20.8133 138.953C15.8507 140.532 11.7605 141.355 9.08641 141.355C7.80164 141.355 6.84365 141.165 6.27302 140.777C5.92524 140.54 5.72117 140.235 5.66479 139.867C4.88832 139.79 0.741088 139.296 0.294704 137.565C0.141046 136.968 0.165582 136.351 0.376946 135.7C0.247165 135.467 -0.204965 134.525 0.108543 133.155ZM32.2714 82.5899C34.3218 83.6144 36.527 83.7659 37.1031 83.7877C37.0996 83.5968 37.0927 83.4002 37.0795 83.1928C36.8022 78.8583 34.087 75.1248 33.3921 74.2353C32.5124 75.6003 31.557 78.1886 32.2714 82.5899Z" fill="black"/>
<path d="M20.6659 31.0138C20.5876 31.4882 20.2016 31.7275 19.8538 31.7541C19.8315 31.7559 19.8089 31.7565 19.7859 31.7565C19.4547 31.7565 19.0811 31.5742 18.9409 31.1486C18.2383 29.0152 17.8255 26.8793 17.7145 24.8004C17.4293 19.4568 15.9648 8.74134 14.8573 6.18866C14.8286 6.12268 14.7116 5.75163 14.5491 5.46087C14.4408 5.26687 15.0632 5.88712 15.1848 5.99291C16.0526 6.74644 19.5401 10.1004 20.818 16.3041C22.0943 22.5006 21.29 27.2928 20.7574 30.4637L20.6659 31.0138ZM20.5365 16.362C19.3829 10.7613 16.4103 7.52438 15.2686 6.45457C16.4213 9.71591 17.755 20.1653 18.0017 24.7854C18.1114 26.8392 18.5193 28.9503 19.2139 31.0598C19.3223 31.3884 19.6148 31.4845 19.8315 31.4691C20.0499 31.4524 20.3254 31.3109 20.382 30.9676L20.4737 30.4171C21.0028 27.2666 21.802 22.5061 20.5365 16.362ZM40.5968 45.9768C40.3081 45.9676 39.8831 46.0512 39.5714 46.1367C38.3322 46.4772 37.0094 47.0117 36.4182 47.2609C36.2221 47.3436 36.1239 47.4681 36.1714 47.5503C36.2188 47.6324 36.3457 47.602 36.5506 47.5158C37.1478 47.2644 38.4544 46.7381 39.6685 46.4068C39.9654 46.3257 40.8325 45.9843 40.5968 45.9768ZM30.2623 44.9385C31.2703 44.7929 32.2506 45.0042 33.2568 45.0687C32.3638 44.6141 31.1626 44.4016 30.2623 44.9385ZM30.5447 43.8964C31.2214 44.0033 31.8056 43.9509 32.4859 43.9969C31.9519 43.5682 31.1372 43.6074 30.5447 43.8964ZM33.0297 48.0305C33.0308 47.8947 32.8292 47.8826 32.5051 47.8824C30.5606 47.8802 23.6667 47.8912 19.156 48.1329C17.9588 48.1972 16.3331 48.4785 17.0377 48.4717C17.529 48.467 17.946 48.4849 19.1058 48.4217C23.6159 48.1761 30.5991 48.1657 32.5243 48.1684C32.8358 48.1688 33.0286 48.1607 33.0297 48.0305ZM26.5743 6.70311C26.5644 6.62283 26.5619 6.31623 26.5237 6.08023C26.466 5.72392 26.8626 6.46579 26.9464 6.61667C27.5697 7.73839 30.0939 12.5605 29.9718 16.8428C29.8312 21.7893 29.4297 23.9364 28.0196 27.2849C27.7202 27.9959 27.3136 28.9393 26.9411 29.7968C26.8144 30.0885 26.5557 30.2077 26.3165 30.2077C26.2705 30.2077 26.2252 30.2033 26.1816 30.1949C25.9124 30.1424 25.6369 29.9196 25.6294 29.5406C25.5734 26.779 25.5338 21.83 25.8969 19.7113C26.5361 15.9806 26.9575 9.82346 26.5743 6.70311ZM25.917 29.5349C25.9219 29.7698 26.0925 29.8861 26.2371 29.9145C26.382 29.9431 26.584 29.8991 26.6773 29.6838C27.0492 28.8273 27.4556 27.8849 27.7547 27.1747C29.1648 23.8262 29.5436 21.797 29.6846 16.8351C29.7934 13.0133 27.7487 8.73738 26.911 7.15422C27.2038 10.4191 26.7912 16.1944 26.1803 19.7597C25.821 21.8549 25.8611 26.7836 25.917 29.5349ZM63.5627 78.5719C63.4398 78.7875 63.3513 78.9859 63.3003 79.0866C63.2954 79.0967 63.2985 79.104 63.3047 79.1071C63.3098 79.1112 63.3184 79.1112 63.3266 79.1033C63.4115 79.0244 63.5598 78.8708 63.7321 78.7147C63.9204 78.5719 64.1159 78.4127 64.3 78.3146C64.3657 78.2759 64.4241 78.233 64.4886 78.2029C64.5539 78.1741 64.6178 78.1459 64.6816 78.1178C64.8048 78.0546 64.9399 78.015 65.0845 77.9671C65.3748 77.8771 65.7219 77.7799 66.2474 77.7432C66.6801 77.7148 67.0305 77.6904 67.3075 77.6585C67.5839 77.6282 67.786 77.5952 67.9003 77.5906C67.9142 77.5901 67.9233 77.5833 67.9262 77.5745C67.9293 77.5659 67.9259 77.5551 67.9142 77.5466C67.8198 77.4786 67.6542 77.3479 67.377 77.2281C67.1015 77.1108 66.7088 76.9991 66.1986 77.0321C65.5815 77.0748 65.1638 77.2314 64.8419 77.3939C64.6805 77.4782 64.5375 77.5578 64.4113 77.662C64.3474 77.7106 64.2832 77.7595 64.218 77.809C64.1546 77.8598 64.0988 77.9231 64.0365 77.9821C63.8607 78.1356 63.7018 78.3694 63.5627 78.5719ZM58.8986 77.5745C58.7226 78.5495 59.3914 79.7473 60.4603 79.7814C59.5713 79.3395 59.1634 78.5033 58.8986 77.5745ZM30.9017 37.077C31.2584 37.2532 31.5383 37.5543 31.8617 37.8044C31.6605 37.4258 31.4058 37.0627 31.024 36.8351C30.0342 36.3754 30.0713 37.9271 30.2904 38.4941C30.3649 38.153 30.3138 36.7596 30.9017 37.077ZM0.108543 133.155C0.527954 131.321 2.09969 129.555 4.77999 127.905C6.67806 126.737 8.30198 126.356 9.72625 126.502L9.72735 126.49C9.82109 126.5 19.1392 127.447 22.3632 126.905C22.5496 126.873 22.7275 126.844 22.898 126.817C25.7368 126.355 26.4114 126.245 28.2139 121.25C30.0775 116.086 32.2119 107.656 32.8745 102.842C32.9462 102.322 32.974 101.841 32.9773 101.379C32.6979 101.426 32.1076 101.508 31.3749 101.508C29.8527 101.508 27.724 101.152 26.5358 99.3837C26.5011 99.3316 26.4998 99.2637 26.5327 99.2102L26.5973 99.124L26.6886 99.1345C26.8226 99.1499 27.422 99.2126 28.1071 99.1785C27.4472 98.8365 26.2995 98.0647 25.68 96.6155C24.976 94.9684 25.133 92.9196 26.1443 90.5264C25.6643 88.9045 25.8779 88.3751 26.1452 88.1296C26.5102 87.7944 27.1788 87.9101 28.1892 88.4844C28.9846 88.9366 30.0512 89.2694 31.0233 89.5038C29.7689 89.031 28.4657 88.3672 27.5982 87.4663C25.2469 85.0253 27.322 78.9469 27.5663 78.2618C27.8275 77.5298 27.8509 76.1493 27.8807 74.4016C27.9077 72.8226 27.9413 70.8578 28.1595 68.6863C28.2906 67.3825 28.7715 66.4963 29.5889 66.0523C29.9822 65.8387 30.4164 65.7474 30.8491 65.7307C30.4898 65.0238 29.1217 62.5923 26.5542 60.9119C25.3603 60.1307 23.7521 59.6583 22.0494 59.1581C19.7377 58.4791 17.1534 57.7199 15.2075 56.0109C15.0198 55.846 14.4275 55.3205 14.2527 55.1373C14.2527 55.1373 13.9555 55.3526 13.7444 55.505C13.4932 54.8468 13.5491 54.2269 13.5982 53.6909C13.378 54.0138 13.1567 54.5639 13.0209 54.5296C12.9016 54.4995 12.7738 53.2612 13.5102 51.587C13.4353 51.6499 13.3484 51.7282 13.2502 51.8238C13.1983 51.8746 13.1191 51.8872 13.0539 51.8551C12.9871 51.8223 12.9482 51.751 12.9571 51.678C13.2091 49.6044 14.2164 49.0158 15.1903 48.4466C15.6966 48.1508 16.2201 47.8448 16.6358 47.3242C17.7859 45.8838 17.6805 41.5329 17.6296 39.4416L17.6214 39.0946C17.583 37.3752 18.3846 36.6477 18.7282 36.4154C13.9195 30.2224 13.3743 27.4298 12.8485 24.7278C12.4799 22.8336 12.5301 18.3485 12.5706 14.7447C12.592 12.8354 12.6104 11.1867 12.5686 10.1778C12.4468 7.23956 11.2865 4.375 10.4245 2.476C10.082 1.72181 10.1388 1.20912 10.2469 0.911534C10.3433 0.646061 10.6033 0.477804 10.8868 0.501778C15.2109 0.879862 21.4655 12.7643 22.3742 17.2549C23.1237 20.9588 23.0428 24.7082 22.127 28.7174C21.8502 29.9288 21.7499 31.2109 21.7222 32.2483L22.464 31.1183C22.5743 30.187 24.8575 10.7039 24.2292 1.3677C24.2164 1.17723 24.3198 1.00655 24.4994 0.921872C24.6937 0.830375 24.919 0.862927 25.0722 1.00589C27.4001 3.17608 29.5047 7.31148 30.7019 12.0684C32.5153 19.2723 30.7551 25.0885 29.5444 27.9141C28.1728 31.1156 27.2327 34.0745 27.0017 34.8221C28.531 35.2106 29.5299 35.8559 29.8354 36.0727C30.1438 35.8191 30.4737 35.7338 30.8164 35.8183C32.1573 36.1488 33.2371 39.0893 33.3841 39.5069C35.2787 40.8323 35.6483 42.7879 35.7078 43.2128C36.4757 43.6034 36.6864 44.0532 36.7441 44.2591C43.674 45.7498 44.4717 48.513 44.5508 49.3272C44.5586 49.4062 44.5143 49.4805 44.4405 49.5118C44.3669 49.5437 44.2824 49.5239 44.23 49.4634C44.1743 49.3987 44.0812 49.3325 43.9817 49.2729C44.1595 49.7471 44.1332 50.2495 44.0916 50.5466C44.0792 50.635 44.0085 50.7017 43.9194 50.7087C43.8292 50.7175 43.7467 50.6599 43.7202 50.573C43.6846 50.4564 43.622 50.3539 43.5552 50.2693C43.611 51.0899 43.4226 51.658 43.293 51.9428C43.2548 52.0266 43.1672 52.0739 43.0755 52.0594C42.9828 52.0451 42.9132 51.9732 42.9026 51.8806C42.8712 51.61 42.8011 51.38 42.731 51.2056C42.1551 54.0398 39.8263 55.5198 38.2605 56.5152C36.6764 57.5224 35.4805 58.8361 35.3187 59.0176C35.1869 59.4456 35.0264 59.863 34.7996 60.2499C35.4129 63.178 35.4259 63.1859 37.6189 64.3341C37.6565 64.3536 37.6979 64.3754 37.7368 64.3959C38.1062 64.3281 40.3238 63.9624 41.855 64.6156C43.4485 65.2948 45.4938 68.3432 46.0845 70.3909C46.1548 70.6346 46.2809 70.8565 46.4533 71.0432C48.2231 72.9579 49.7303 75.0618 50.8681 77.2461C51.3686 77.2853 54.5822 77.4434 56.2295 75.2517C56.3058 75.0429 56.5952 74.2738 56.817 73.9683C56.2788 72.7641 56.2176 71.1853 56.1745 70.026L56.167 69.8256C56.1221 68.6674 54.6998 67.6937 53.4449 66.8348C53.0482 66.5636 52.6739 66.3072 52.3399 66.0472C51.7867 65.6168 51.5534 65.0414 51.6832 64.4271C51.8665 63.5596 52.748 62.7401 53.7794 62.4786C54.5621 62.2798 55.4509 62.4669 56.2189 62.9913C57.0865 63.5832 57.6549 64.5131 57.7785 65.5427C57.8986 66.5434 58.1685 67.256 58.4066 67.7177C58.4146 67.4232 58.5026 67.1955 58.5548 67.0869C58.2253 66.3105 58.4334 65.7259 58.5705 65.4663C58.3757 65.3212 58.0829 64.931 57.7752 63.9023C57.635 63.434 57.6494 63.0883 57.819 62.8453C58.0686 62.4874 58.5899 62.4522 59.0496 62.421C59.255 62.4071 59.4488 62.3939 59.6034 62.3557C60.2008 62.2072 60.058 61.4207 60.0515 61.3872L60.0179 61.2111L60.1979 61.2174C61.7765 61.2724 62.172 62.311 62.2561 62.6286C63.3969 63.0153 63.5041 64.0169 63.5105 64.3083C64.2552 64.9026 64.3721 65.9141 64.3902 66.2507C64.4939 66.2768 64.5888 66.2995 64.6717 66.3171C68.2233 58.7787 72.4519 58.7433 74.6624 59.3987L74.7143 59.4141C75.1968 59.554 75.9374 60.0891 75.996 60.793C76.0586 61.5454 75.3858 62.2639 73.9967 62.9295C71.1331 64.3011 69.1276 66.5243 68.6699 67.0603C68.8444 67.1867 68.9912 67.3394 69.0986 67.5265C69.6345 68.4596 69.3803 69.2089 69.2047 69.5448C69.2366 69.552 69.2684 69.5542 69.3002 69.5639C69.9374 69.7539 70.413 70.3414 70.7135 71.31C71.4097 73.5539 69.8351 75.3137 69.4327 75.6988C69.3255 75.8015 69.2693 75.851 69.2211 75.8759C69.306 76.0778 69.3891 76.3184 69.4705 76.6111C70.4855 77.5351 70.8264 78.9663 70.2803 80.0302C69.8112 80.9445 68.8194 81.2652 68.4234 81.3595C68.4616 81.4532 68.4924 81.5284 68.4999 81.5491C68.6133 81.8572 68.6166 81.9155 68.6582 82.0763C70.2642 82.2872 70.4543 83.599 70.4727 84.0343C70.8959 84.1077 72.0749 84.5808 72.2602 87.5578C72.4539 90.6702 70.7181 91.4994 70.2779 91.6586C70.1877 92.4348 69.9246 92.9596 69.4957 93.2196C69.138 93.4364 68.7581 93.4107 68.5342 93.3647C68.5417 95.9361 67.7603 98.5121 66.6076 99.6798C66.1563 100.137 65.6671 100.369 65.1532 100.369C64.7245 100.369 64.3589 100.212 64.0659 99.9046C63.2154 99.0094 63.2514 97.1034 63.2644 96.7706C62.5426 95.6506 62.2806 94.6039 62.4858 93.6588C62.6976 92.6831 63.3432 92.1232 63.5753 91.9492L63.4491 91.3648C63.0327 91.4717 62.717 91.4147 62.5088 91.1946C61.8455 90.4927 62.6438 88.3562 62.8121 87.931C61.8404 85.0735 63.8039 82.8659 64.235 82.4267C63.8985 82.5373 63.5797 82.5956 63.2821 82.5956C62.9233 82.5956 62.5939 82.5153 62.2958 82.3545C61.5152 81.9334 61.1784 81.0828 61.0602 80.69C60.3082 81.1255 59.0241 80.9863 58.7139 80.9443C58.4272 81.1983 56.9664 82.3517 54.0653 82.3517C53.7104 82.3517 53.3288 82.3299 52.9302 82.2914C55.4617 90.4951 53.7412 97.0211 53.6786 97.2498C52.7752 104.943 51.4221 111.633 50.3348 117.009L50.2581 117.388C49.4712 121.28 49.1097 125.374 48.9738 127.265C51.7681 128.434 59.2103 128.438 59.6905 128.436C60.3823 128.029 61.128 127.721 61.9027 127.538C63.0212 127.272 64.6852 127.022 66.2596 127.335C68.5129 127.783 72.2293 129.859 73.3458 132.591C73.9239 134.005 73.7495 135.414 72.8278 136.778C72.8923 137.245 72.7884 137.671 72.5171 138.05C71.2083 139.879 66.3672 140.011 65.5581 140.02C65.4468 140.325 65.2295 140.586 64.9085 140.798C64.1271 141.313 62.7975 141.5 61.2793 141.5C57.6487 141.5 52.9439 140.426 52.1097 140.18C52.006 140.149 41.6813 137.028 40.0527 133.762C39.8 133.255 39.7511 132.759 39.938 132.298C39.9802 132.194 40.0761 131.978 40.1159 131.885C40.8013 130.27 43.3399 124.073 44.5225 118.191C45.7947 111.863 45.4487 105.707 45.3907 104.834C44.5579 104.639 43.4257 104.517 41.9322 104.63L41.9181 104.631C41.8389 104.636 40.5124 104.776 39.5289 107.328C38.6682 109.561 35.0954 120.206 33.3419 131.471C33.3068 131.696 33.2082 131.903 33.0569 132.069C32.1566 133.056 28.6125 136.472 20.8133 138.953C15.8507 140.532 11.7605 141.355 9.08641 141.355C7.80164 141.355 6.84365 141.165 6.27302 140.777C5.92524 140.54 5.72117 140.235 5.66479 139.867C4.88832 139.79 0.741088 139.296 0.294704 137.565C0.141046 136.968 0.165582 136.351 0.376946 135.7C0.247165 135.467 -0.204965 134.525 0.108543 133.155ZM25.9451 96.5038C26.712 98.2985 28.3366 98.9927 28.6543 99.1134C28.7235 99.1396 28.7658 99.2091 28.7565 99.2824L28.726 99.4104L28.6141 99.4238C27.9555 99.5021 27.313 99.4752 26.9342 99.4455C28.7021 101.725 32.2944 101.211 32.9773 101.089C32.9692 100.521 32.9269 99.9758 32.8832 99.4152C32.8829 99.4121 32.8827 99.409 32.8825 99.406C27.7211 99.1005 26.7388 94.5228 26.7293 94.4761L26.6948 94.305H27.661C26.9964 92.8837 26.5582 91.7957 26.2796 90.9559C25.4173 93.1378 25.3037 95.0031 25.9451 96.5038ZM28.0468 88.7332C27.1843 88.2429 26.594 88.1068 26.3404 88.3401C25.9652 88.6845 25.9515 90.0134 28.0172 94.3873L28.1133 94.5912H27.0525C27.2734 95.4148 28.4562 98.8392 32.8602 99.1183C32.7317 97.4293 32.6508 95.6282 33.4792 92.7441C33.4679 92.7258 33.4551 92.7054 33.4368 92.6757C33.3901 92.6053 33.3333 92.4968 33.2468 92.3772C33.0797 92.1339 32.8272 91.8221 32.515 91.5421C32.204 91.2608 31.8308 91.0215 31.4896 90.8561C31.1474 90.692 30.8434 90.597 30.6802 90.5343C31.5314 90.5096 32.4655 91.0171 32.9893 91.5788C33.2601 91.8548 33.4514 92.1284 33.5747 92.3275C33.582 92.3402 33.5873 92.3495 33.5942 92.3616C33.8341 91.61 34.1124 90.9869 34.404 90.4441C34.1887 90.4034 33.8701 90.3388 33.483 90.2468C33.1206 90.2037 29.9192 89.7975 28.0468 88.7332ZM30.7474 36.0958C30.4675 36.0268 30.2046 36.1136 29.9424 36.3604L29.8522 36.4453L29.7547 36.369C29.7353 36.3538 27.8257 34.8954 24.8093 34.8103C24.959 34.9563 25.1074 35.1257 25.2528 35.3218C25.0417 35.1215 24.8401 34.9556 24.6477 34.8208C24.64 34.8153 24.5168 34.735 24.5115 34.7317C22.6464 33.5427 21.7019 35.3874 21.5712 37.5774C21.5361 37.8809 21.5235 38.1864 21.5093 38.4941C21.4167 37.8844 21.407 37.2628 21.47 36.6439C21.5073 36.0897 21.6345 35.6091 21.8266 35.2196C22.2272 32.0143 23.7633 30.6394 24.6446 30.105C24.7209 30.059 24.8175 30.0753 24.8743 30.1432C24.9312 30.2112 24.9289 30.3086 24.8695 30.3746C24.2666 31.0426 23.8611 32.1436 23.6601 32.7918C25.1392 31.4418 27.192 30.8726 27.6999 30.7479C27.7786 30.7292 27.8558 30.7686 27.8852 30.8425L27.9243 30.9775L27.8151 31.0389C27.0359 31.4772 26.0799 32.3761 25.5584 32.8954C26.2071 32.7527 26.7638 32.8158 27.0141 32.86C27.0974 32.8745 27.1575 32.9458 27.1573 33.0294C27.1571 33.114 27.0956 33.1862 27.0107 33.2007C26.1065 33.3536 25.0607 34.1766 24.6577 34.5188C25.4173 34.5278 26.1076 34.6198 26.7213 34.7568C26.9446 34.0327 27.8929 31.04 29.2802 27.8017C30.4768 25.0091 32.2161 19.2606 30.4233 12.1379C28.668 5.1646 25.7335 2.01412 24.8759 1.21462C24.7954 1.1394 24.6893 1.14929 24.6227 1.18031C24.5885 1.19658 24.5093 1.24519 24.5164 1.34834C25.1587 10.8928 22.77 30.9834 22.7459 31.1851L22.7419 31.2183L21.8334 32.6024C21.7556 32.7208 21.7136 32.8596 21.7143 33.001C21.7154 33.268 21.7205 33.5055 21.7271 33.705C21.7406 34.1174 21.8071 34.2751 21.6404 34.3099C21.479 34.3435 21.4547 34.1533 21.441 33.7587C21.4047 32.7234 21.4023 30.5996 21.8469 28.6538C22.7536 24.6849 22.8339 20.9749 22.0926 17.3113C21.1125 12.4676 14.7764 1.12884 10.8622 0.786826C10.7088 0.775389 10.5702 0.865126 10.518 1.00875C10.4282 1.25641 10.3844 1.69146 10.6871 2.35833C11.5591 4.2791 12.7326 7.17819 12.8565 10.1661C12.8987 11.1823 12.8801 12.8347 12.8587 14.748C12.8184 18.3391 12.7685 22.8079 13.1313 24.6735C13.6723 27.4542 14.2317 30.3298 19.5732 37.0255C19.5732 37.0255 19.0492 36.8267 18.9049 36.6424C18.6307 36.821 17.8732 37.4619 17.9097 39.0884L17.9179 39.435C17.9668 41.4502 18.0514 44.9917 17.2411 46.8476C18.0559 46.5412 20.2254 45.9282 23.8686 46.2766C21.4817 42.9407 23.1233 37.823 23.6979 36.3017C23.7549 36.1506 23.8765 36.0378 24.0318 35.9918C24.1863 35.9458 24.349 35.9742 24.479 36.0686C26.0802 37.234 27.2155 38.9857 28.6676 42.5318C29.2942 44.062 29.4102 45.297 29.0125 46.2025C28.8407 46.5936 28.6041 46.8443 28.4091 46.9987C32.0737 47.5699 32.9893 47.1892 33.7428 46.874C33.9318 46.795 34.1104 46.7202 34.3207 46.6642C34.5068 46.6145 34.6789 46.5808 34.8387 46.5496C35.0328 46.5117 35.2055 46.4774 35.3618 46.4198C32.3919 45.3401 31.6081 40.46 31.4359 38.9441C31.4206 38.8119 31.4819 38.6857 31.5953 38.6149C31.7092 38.5434 31.8511 38.5436 31.965 38.6151L32.9815 39.2516C32.6391 38.3804 31.741 36.3404 30.7474 36.0958ZM23.2402 33.2192C23.2931 33.003 23.6176 31.7451 24.2296 30.7589C23.4841 31.395 22.5885 32.569 22.2055 34.6561C22.2807 34.5743 22.3603 34.5014 22.4437 34.4374L22.4408 34.4361C22.6431 33.9806 22.9205 33.5779 23.2402 33.2192ZM22.8821 34.199C23.1016 34.1223 23.3364 34.0987 23.5798 34.1346C24.0121 33.601 24.5014 33.2746 24.9769 33.0793C25.1023 32.946 26.0264 31.973 26.9661 31.2625C25.7985 31.6582 23.8182 32.5431 22.8821 34.199ZM23.8896 34.2111C24.0346 34.2613 24.1814 34.3314 24.3285 34.4247C24.5235 34.2487 25.4189 33.4688 26.3623 33.0931C25.6964 33.0964 24.6968 33.2863 23.8896 34.2111ZM26.8345 44.1651C26.6389 44.4135 26.0141 45.079 24.9409 45.079C24.4879 45.079 23.9546 44.9585 23.3408 44.6398C23.5524 45.2341 23.85 45.8004 24.2562 46.3162C24.9533 46.3938 25.7017 46.5065 26.502 46.6622C27.0395 46.7667 27.5314 46.8553 27.986 46.931C28.1018 46.8766 28.5031 46.654 28.7525 46.0789C28.8708 45.8062 28.9314 45.4892 28.9444 45.1395C28.2765 44.6844 27.5478 44.3745 26.8345 44.1651ZM28.9404 44.7922C28.9062 44.1645 28.7293 43.442 28.401 42.6398C26.9712 39.1487 25.8619 37.4302 24.3088 36.2995C24.2522 36.2584 24.1812 36.2463 24.1133 36.2661C24.045 36.2863 23.9915 36.336 23.9665 36.4024C23.5434 37.5228 22.5277 40.6383 23.0375 43.4842C23.6992 43.4294 26.5946 43.2922 28.9404 44.7922ZM33.4934 47.2815C33.7505 47.5998 34.3844 48.3098 34.974 48.3749C35.0578 48.3843 35.1239 48.3621 35.179 48.3049C35.4151 48.0593 35.4091 47.2666 35.3443 46.7235C35.2055 46.7656 35.0565 46.7983 34.8935 46.8302C34.7397 46.8603 34.5738 46.8927 34.3945 46.9404C34.2035 46.9914 34.0335 47.0625 33.8537 47.1377C33.7399 47.1852 33.622 47.2343 33.4934 47.2815ZM35.7001 46.2267C35.9596 46.0076 36.1708 45.6097 36.3684 44.8347C36.1259 44.7018 35.7996 44.5921 35.4414 44.5021C35.3214 44.733 34.976 45.2156 34.1726 45.3181C34.6048 45.7419 35.1098 46.0637 35.7001 46.2267ZM35.5117 43.4349L35.4392 43.4L35.4315 43.3199C35.4292 43.2979 35.1942 41.1002 33.1838 39.7166L31.8111 38.8572C31.7826 38.8394 31.7569 38.8511 31.7474 38.857C31.7359 38.864 31.7171 38.8808 31.7209 38.912C31.8268 39.843 32.1686 42.0805 33.1157 43.8599C33.521 43.8904 35.4655 44.0605 36.4372 44.5459C36.45 44.4889 36.4628 44.4339 36.4757 44.3734C36.4604 44.2881 36.3399 43.8344 35.5117 43.4349ZM35.274 58.1037C35.3967 57.6363 35.5237 57.1529 35.7023 56.6952C35.7023 56.6952 35.6729 57.7164 35.5524 58.176C35.5309 58.2576 35.5095 58.3395 35.4876 58.4211C35.9983 57.902 36.9495 57.0088 38.1058 56.2737C39.7045 55.2576 42.1204 53.7217 42.5185 50.7355L42.5667 50.3735L42.7785 50.672C42.7898 50.688 43.0184 51.0151 43.1372 51.5454C43.2475 51.1926 43.339 50.6456 43.2276 49.9178L43.1785 49.5976L43.4493 49.7773C43.4615 49.7852 43.6689 49.9248 43.8343 50.1633C43.8409 49.8186 43.7852 49.3818 43.5303 49.0297L43.2395 48.628L43.7009 48.8135C43.7399 48.8291 43.9983 48.9353 44.2187 49.0831C43.9862 48.0986 42.7739 45.8605 36.731 44.5498C36.4381 45.8794 36.104 46.378 35.6214 46.6158C35.6694 46.9787 35.7792 48.0945 35.3868 48.5027C35.2853 48.608 35.156 48.6628 35.0098 48.6628C34.9877 48.6628 34.965 48.6615 34.9422 48.6591C34.179 48.5746 33.4215 47.6616 33.2024 47.3772C32.8086 47.4918 32.2962 47.5791 31.5153 47.5791C30.4494 47.5791 28.8852 47.417 26.4463 46.9426C20.4569 45.7771 17.3643 47.0915 17.0351 47.2435C16.9796 47.335 16.9232 47.4245 16.8611 47.5024C16.4123 48.0648 15.8651 48.3843 15.3362 48.6936C14.4344 49.2206 13.5796 49.7201 13.2887 51.3989C13.6517 51.0866 14.0767 51.0866 14.0767 51.0866L13.9639 51.2968C13.9566 51.3105 13.3544 52.4485 13.2496 53.7107C13.4673 53.2616 14.0605 52.8835 14.0605 52.8835L13.9531 53.2891C13.9504 53.2994 13.7634 54.0341 13.9703 54.8987C15.0223 54.2094 17.4145 53.3291 20.1538 52.4575C19.0585 52.4344 18.4448 52.0097 18.4448 52.0097C18.4689 52.015 19.4824 52.2318 21.095 52.1623C24.4671 51.4594 26.1766 50.6709 28.3203 50.0951C28.9137 49.7696 29.5162 49.3937 30.123 48.9635C26.5876 49.344 20.6754 50.0333 17.1815 50.7298C16.2228 50.921 15.8244 51.0109 15.3508 51.126C14.7968 51.2603 16.1222 50.6502 17.07 50.4591C20.7596 49.7148 27.1191 48.9903 30.5944 48.6236L30.6473 48.6181C31.4169 48.537 32.0412 48.4739 32.4584 48.4323C32.7624 48.4019 32.9583 48.387 32.9826 48.517C33.0063 48.6432 32.8372 48.6824 32.5066 48.7154C32.0989 48.7563 31.4783 48.8194 30.7092 48.901C30.7401 49.0083 30.8064 49.2001 30.9249 49.4086C31.5215 49.2544 32.0006 49.1326 32.3236 49.0512C32.5601 48.9916 32.7903 48.9573 32.8248 49.0774C32.8579 49.1926 32.6722 49.2584 32.4116 49.3244C32.1098 49.4009 31.6588 49.516 31.0943 49.6622C31.2497 49.8617 31.4584 50.0511 31.7386 50.1718C32.4741 50.489 33.4728 50.2624 34.7072 49.4986L34.7607 49.4656L34.8215 49.4823C34.8334 49.4856 36.0636 49.8144 36.6713 49.2852C36.8296 49.1473 36.9311 48.9575 36.9798 48.7209C36.8831 48.7138 36.7934 48.7072 36.7111 48.7013C36.3707 48.6769 36.1657 48.6841 36.1679 48.5434C36.1701 48.4008 36.4131 48.3929 36.7268 48.4151C36.8142 48.4213 36.9101 48.4283 37.0134 48.4358C37.0165 48.3179 37.0085 48.1901 36.9908 48.0544C36.8529 48.0727 36.729 48.0894 36.622 48.1039C36.3525 48.1409 36.1982 48.1547 36.1756 48.0452C36.1529 47.935 36.3258 47.8556 36.569 47.8219C37.1449 47.7423 38.2177 47.6018 39.3357 47.4947C39.4173 47.4843 39.5497 47.4747 39.5497 47.4747C40.2528 47.4104 40.9625 47.3618 41.5679 47.3521C41.9466 47.346 42.4858 47.4467 42.7578 47.5499C42.8849 47.598 41.9435 47.6326 41.5793 47.6385C40.9738 47.6484 40.2548 47.6988 39.542 47.7645C39.4487 47.7731 39.3585 47.7991 39.2725 47.836C39.2716 47.8365 39.2707 47.8369 39.2696 47.8371C39.1624 47.8831 39.0691 47.9533 38.9912 48.0397C38.8829 48.16 38.7224 48.3408 38.5404 48.5544C39.7814 48.6569 41.2539 48.7945 42.2968 48.9432C42.6857 48.9986 43.5004 49.3176 43.2543 49.3077C42.9656 49.2962 42.6581 49.2846 42.2957 49.2324C41.2088 49.0761 39.6094 48.9294 38.3147 48.8238C37.8486 49.3901 37.3373 50.0762 37.223 50.4857C37.179 50.6434 37.1339 50.8974 37.0821 51.1915C36.8586 52.4564 36.485 54.5639 35.1781 55.6746C34.3052 58.9846 32.9849 59.6715 31.0373 59.6712C30.6139 59.6712 30.1609 59.6389 29.6764 59.594C28.221 59.4592 26.7939 57.5356 25.4136 55.6751C24.1927 54.0292 23.0399 52.4753 22.0457 52.3792C22.0315 52.3794 22.0176 52.3794 22.0035 52.3796C21.9104 52.3891 21.8193 52.3974 21.7289 52.4049C21.0391 52.5912 20.7735 53.5972 20.7707 53.6091C20.7707 53.6091 20.7631 52.7865 21.0855 52.4696C18.326 53.3236 15.8153 54.2012 14.5206 54.9046L14.6842 55.0885C16.6239 57.2661 19.4238 58.0883 22.1317 58.8838C23.7981 59.3732 25.3718 59.8395 26.5858 60.5968C26.8653 60.67 27.3663 60.8088 27.8597 60.9689C26.8197 60.1855 26.0543 59.3429 25.5259 58.65C24.8706 57.7911 24.8436 57.7043 24.6504 57.3154C24.5584 57.1302 25.3773 58.1285 25.7441 58.5412C29.1947 62.4219 30.8224 62.2705 32.6687 61.6107C34.5279 60.9465 34.8902 59.5657 35.274 58.1037ZM35.1485 51.3437C35.0952 52.2791 34.8115 53.2634 34.6123 53.5753C34.7494 52.7087 34.8754 51.7185 34.856 50.9509C34.8456 50.5684 34.8082 50.2427 34.7523 50.0209C34.7397 49.9429 34.7195 49.8844 34.7021 49.8331C33.4522 50.5721 32.4153 50.7776 31.6212 50.4331C31.4991 50.3803 31.3928 50.3146 31.2931 50.2444C31.8414 51.9206 31.9683 54.2894 31.9972 55.2123C32.0014 55.3482 32.1135 55.4542 32.2502 55.4542H34.9981C36.2221 54.4091 36.5825 52.3675 36.7989 51.1424C36.8517 50.8422 36.8942 50.6042 36.9397 50.4342L36.8867 49.4746C36.8774 49.4832 36.8697 49.4929 36.8599 49.5012C36.3196 49.9715 35.4418 49.8916 35.0061 49.8144C35.0134 49.8355 35.0187 49.8514 35.0269 49.8749C35.0421 49.9407 35.0594 50.0155 35.0784 50.0973C35.1469 50.4261 35.1792 50.8774 35.1485 51.3437ZM32.0664 55.7406C31.8741 55.7406 31.7171 55.5891 31.7118 55.3977C31.7014 55.0295 31.6771 54.4084 31.6212 53.7508C30.6426 53.1327 29.7403 53.3819 29.3603 53.5403C30.0233 54.0926 30.8564 55.3102 30.7927 55.9434C29.9207 54.1838 29.018 53.3656 27.7426 52.9612C26.0693 52.4304 24.431 53.0912 23.923 53.3302C24.4817 53.9399 25.0554 54.7115 25.6446 55.5059C26.9873 57.3156 28.3755 59.1871 29.7028 59.3099C32.2232 59.5437 33.8352 59.4918 34.8624 55.7406H32.0664ZM27.8272 52.6876C28.2853 52.8325 28.7098 53.0549 29.1051 53.3415C29.399 53.1952 30.4324 52.7749 31.5891 53.3982C31.4695 52.1806 31.2393 50.7217 30.7974 49.7482C30.7956 49.7456 30.7941 49.7429 30.7923 49.7403C30.1169 49.916 29.3057 50.1298 28.4089 50.3713C25.919 51.2982 23.923 51.7774 22.6893 52.2945C23.0253 52.4716 23.3674 52.7555 23.7154 53.1109C24.1447 52.8943 25.9349 52.0884 27.8272 52.6876ZM30.6366 49.4834C30.5557 49.3299 30.4974 49.1865 30.4615 49.0774C30.0888 49.3477 29.7178 49.591 29.3486 49.821C29.8148 49.6979 30.2466 49.5848 30.6366 49.4834ZM37.2696 48.7426C37.2453 48.877 37.2075 49.0008 37.1542 49.1124L37.1964 49.8738C37.3987 49.5327 37.6846 49.1482 37.9672 48.7963C37.7169 48.7767 37.4816 48.7587 37.2696 48.7426ZM38.1882 48.5262C38.3335 48.3522 38.4693 48.195 38.5853 48.0634C38.0295 48.1908 37.5444 48.1866 37.2926 48.1699C37.3008 48.2704 37.3012 48.3652 37.2981 48.4574C37.5645 48.4772 37.865 48.5003 38.1882 48.5262ZM41.7416 64.8782C40.5758 64.3811 38.9276 64.5177 38.1624 64.6198C38.1924 64.6356 38.2201 64.6501 38.2508 64.6666C40.9826 66.1182 43.5486 68.0648 45.758 70.308C45.1347 68.3291 43.2311 65.5132 41.7416 64.8782ZM73.872 62.6717C75.1249 62.0717 75.7603 61.4301 75.7092 60.8167C75.6602 60.2259 74.9845 59.7907 74.6334 59.6888L74.5799 59.673C72.4654 59.0464 68.4199 59.0954 64.9673 66.3646C65.1919 66.3908 65.4628 66.4059 65.7665 66.4222C66.6562 66.4706 67.7 66.5293 68.4223 66.9089C68.8278 66.429 70.8906 64.0998 73.872 62.6717ZM68.849 67.6684C68.3794 66.8509 66.8603 66.7682 65.7511 66.7079C65.3471 66.6859 64.9982 66.667 64.7279 66.6195C64.5519 66.5887 64.3153 66.5273 64.0416 66.4563C63.0462 66.1981 61.5419 65.8075 60.9078 66.3424C60.6684 66.5441 60.572 66.8654 60.6133 67.3242C60.788 69.2621 62.0341 69.9189 62.4305 70.0803C62.532 69.8472 62.673 69.6574 62.8576 69.5175C63.7091 68.8735 65.2238 69.3743 66.3301 69.7403C66.7643 69.8839 67.3593 70.0797 67.4654 70.0159C67.7371 69.7933 68.2956 69.4893 68.8963 69.5056C69.0175 69.3114 69.3814 68.5953 68.849 67.6684ZM70.4389 71.3945C70.1683 70.5224 69.7575 69.9987 69.2178 69.8377C68.5912 69.651 67.9361 70.0005 67.648 70.2367C67.4473 70.401 67.0489 70.2794 66.2392 70.0117C65.1939 69.6655 63.7623 69.192 63.0316 69.7451C62.6629 70.0245 62.4962 70.5627 62.5366 71.3448C62.6244 73.0434 63.5432 73.6773 64.2985 73.91C65.7009 74.3415 67.4256 73.7288 67.9043 73.1046C67.9043 73.1046 67.9129 73.3999 67.8245 73.5526C67.8262 73.555 67.8271 73.5565 67.8289 73.559C67.9775 73.7593 68.2001 74.0591 68.2991 74.6319C68.3389 74.671 68.3785 74.7086 68.4174 74.7458C68.6522 74.9701 68.8791 75.187 69.0962 75.608C69.1159 75.5948 69.1355 75.5787 69.1623 75.5607C69.2436 75.4877 71.1598 73.7193 70.4389 71.3945ZM63.1015 87.8875L63.1194 87.9383L63.0991 87.9882C62.8293 88.652 62.235 90.4868 62.7186 90.9986C62.8674 91.1558 63.1322 91.1723 63.5065 91.0492C63.4931 90.5758 63.5819 90.0986 63.7787 89.6816C63.7268 90.7445 63.7816 91.746 64.1386 92.7467C63.9828 92.5736 63.8623 92.3754 63.7641 92.1665C63.5861 92.2978 62.9638 92.812 62.767 93.7193C62.5797 94.5813 62.8265 95.5484 63.4944 96.5935C63.5214 96.5957 63.5554 96.5977 63.5979 96.5984C63.6965 96.6028 63.8318 96.5927 63.9744 96.5654C64.262 96.5154 64.5656 96.3839 64.7199 96.3921C64.5353 96.6564 64.1913 96.8359 63.8983 96.8839C63.761 96.9105 63.6396 96.9043 63.5494 96.8973C63.5421 97.3952 63.5771 98.974 64.2748 99.7084C64.5143 99.9604 64.8015 100.083 65.153 100.083C65.5868 100.083 66.0071 99.8799 66.4022 99.4796C67.4442 98.4239 68.1672 96.1431 68.2383 93.7868C68.2417 93.6753 68.231 93.6089 68.2151 93.6874C68.1285 94.4005 67.2846 94.9235 66.6184 94.5538C66.0391 94.1541 66.0086 93.3595 66.0849 92.7469C66.1778 93.312 66.2618 93.9938 66.7544 94.32C67.2697 94.5542 67.866 94.1871 67.9976 93.632C68.0769 93.3709 68.1125 93.0885 68.1212 92.8006C68.1249 92.6761 68.1318 92.6046 68.1318 92.5683C68.1318 92.536 68.1917 92.6484 68.2445 92.763C68.293 92.8681 68.3498 92.9631 68.4139 93.0168C68.5877 93.1617 68.9251 93.2301 69.3458 92.9754C69.7048 92.7577 70.002 91.9575 69.9527 91.4226C69.9436 91.3239 69.8638 91.2073 69.7878 91.0872C69.6379 90.8422 69.3876 90.6337 69.319 90.4967C69.6438 90.5292 69.9635 90.7811 70.1136 91.0408C70.1895 91.1616 70.2275 91.2781 70.2514 91.3652C70.7143 91.1866 72.149 90.4025 71.973 87.5756C71.7712 84.336 70.3639 84.3074 70.3354 84.3074C70.3352 84.3074 70.3352 84.3074 70.335 84.3074L70.1747 84.3138L70.1857 84.1548C70.1904 84.0884 70.2792 82.523 68.528 82.3499L68.4256 82.3398L68.4022 82.2402C68.3969 82.2175 67.8718 80.0214 66.8623 79.0994C66.8284 79.0684 66.7882 79.0497 66.7427 79.042C66.6027 79.0189 66.325 78.9872 65.9779 79.02C66.3969 79.7445 67.8395 82.4164 68.0557 85.1806C68.6359 84.9422 69.3721 84.9644 69.9206 85.2068C69.7807 85.2191 69.6452 85.2189 69.5107 85.2195C68.6257 85.2356 67.6874 85.4186 67.1758 86.2258C67.2556 86.288 67.3325 86.3542 67.402 86.4251C67.2872 86.3965 67.1851 86.3536 67.0798 86.3221C66.3431 86.0696 65.6308 86.2401 64.9987 86.724C65.2065 86.2647 65.6684 85.9882 66.1532 85.9388C66.4387 83.5429 65.0838 80.1379 64.7745 79.4005C64.6025 79.4994 64.43 79.6191 64.2622 79.7702C64.3381 80.1461 64.6403 81.7187 64.5563 82.468L64.5503 82.5215L64.5105 82.5578C64.486 82.5804 62.0358 84.8544 63.1015 87.8875ZM66.4431 85.9359C66.6927 85.9579 66.9366 86.0417 67.1426 86.1959C67.1481 86.1998 67.1523 86.2051 67.1577 86.2091C67.2395 85.8125 67.4703 85.5211 67.7791 85.3253C67.5923 82.4256 65.9817 79.5857 65.6717 79.0637C65.4696 79.1035 65.2529 79.1693 65.0321 79.2685C65.3374 79.9851 66.7261 83.4197 66.4431 85.9359ZM61.3 78.6144L61.3686 78.6698L61.35 78.7558C61.3478 78.7657 61.1623 79.6288 61.2373 80.1958L61.241 80.1925L61.2886 80.4278C61.291 80.4397 61.5399 81.6224 62.4347 82.104C62.9388 82.3757 63.5609 82.3746 64.2826 82.1069C64.2702 81.2185 63.9684 79.766 63.9651 79.7495L63.9487 79.6717L64.0067 79.6167C65.1163 78.5667 66.3929 78.6881 66.792 78.7589C66.8627 78.7714 66.9133 78.7884 66.947 78.8035C66.9812 78.8192 67.0232 78.8579 67.0491 78.8812C67.4743 79.2661 67.9025 80.1417 68.1804 80.7745C68.1959 80.8094 68.2518 80.944 68.3129 81.091C68.6237 81.0204 69.5941 80.7391 70.0245 79.9004C70.5178 78.9395 70.191 77.6339 69.2474 76.7963L69.2156 76.7682L69.2043 76.7273C68.8963 75.5996 68.5821 75.3 68.2187 74.9528C68.1678 74.9041 68.1161 74.8549 68.0635 74.8025L68.0303 74.7695L68.023 74.7234C67.9403 74.1966 67.7396 73.9208 67.6038 73.7373C67.5848 73.7483 67.5656 73.7598 67.5421 73.7703C66.6987 74.2601 65.323 74.5256 64.2136 74.1836C63.3708 73.9241 62.346 73.2233 62.2494 71.36C62.2293 70.9704 62.2609 70.635 62.3379 70.3493C61.9045 70.169 60.5147 69.4335 60.3268 67.3502C60.2771 66.7994 60.4102 66.3868 60.7219 66.1242C61.4656 65.4973 63.0423 65.9018 64.0953 66.1748C64.0606 65.8017 63.9127 64.9583 63.2808 64.4931L63.2176 64.4462L63.2231 64.3679C63.2262 64.3217 63.2868 63.2357 62.0924 62.8765L62.0049 62.8497L61.9916 62.7599C61.9848 62.7126 61.8086 61.6411 60.3567 61.5135C60.3814 61.9107 60.2645 62.4861 59.673 62.633C59.4937 62.6777 59.2875 62.6917 59.069 62.7062C58.6545 62.7344 58.226 62.7634 58.0551 63.008C57.9401 63.1728 57.9388 63.4461 58.0507 63.8205C58.4506 65.1567 58.786 65.2624 58.7758 65.2631L59.0646 65.2638L58.8899 65.4932C58.8709 65.5182 58.4272 66.118 58.845 67.033L58.8764 67.1029L58.8362 67.1678C58.8174 67.1982 58.3825 67.9218 59.1 68.7455L59.1493 68.8022L59.1307 68.8748C59.1258 68.8931 58.6741 70.6957 59.6355 71.4552L59.7024 71.5082L59.6876 71.592C59.6825 71.6202 59.2087 74.404 60.5625 75.7705C60.6642 75.8732 60.7752 75.9665 60.8917 76.0476L60.985 76.1125L60.9428 76.2179C60.9359 76.2335 60.3151 77.8175 61.3 78.6144ZM58.723 80.6564C58.9456 80.6871 60.3239 80.8539 60.9859 80.3942C60.8618 79.8674 60.9996 79.0457 61.0515 78.7791C60.1367 77.9629 60.5052 76.6061 60.637 76.2166C60.5386 76.1418 60.4449 76.0595 60.3571 75.9709C59.7904 75.3988 59.5189 74.62 59.3978 73.8746C59.3007 73.9848 59.193 74.1539 59.1086 74.3536C58.9264 74.7682 58.8442 75.2789 58.7425 75.4595C58.6472 74.9998 58.7204 74.4429 58.9182 74.0453C59.0162 73.8464 59.1406 73.6909 59.2457 73.5964C59.2866 73.5607 59.3204 73.5343 59.3491 73.5128C59.2592 72.642 59.3531 71.8751 59.3907 71.6243C58.469 70.8154 58.754 69.2384 58.8344 68.8759C58.7487 68.7712 58.6792 68.6676 58.6224 68.5658C58.5026 68.4367 57.7274 67.5338 57.4926 65.5761C57.379 64.6283 56.8552 63.7721 56.056 63.2269C55.3558 62.7491 54.5517 62.5778 53.8501 62.7553C52.9346 62.9876 52.1236 63.7314 51.9645 64.4854C51.857 64.9945 52.0478 65.4564 52.5167 65.8213C52.844 66.076 53.215 66.3298 53.6076 66.5986C54.918 67.4958 56.4038 68.5126 56.4539 69.8142L56.4615 70.0148C56.5198 71.5902 56.6083 73.9714 57.9109 74.9686C57.9109 74.9686 57.304 74.8694 56.966 74.2681C56.8143 74.5417 56.6134 75.0361 56.4951 75.3612C56.4632 75.5101 55.8338 78.661 58.723 80.6564ZM58.4332 80.8031C56.1625 79.155 56.0657 76.815 56.148 75.796C54.4882 77.5796 51.8508 77.5901 51.0217 77.5439C51.0706 77.6409 51.1239 77.7368 51.1712 77.834C51.8617 79.252 52.4053 80.6451 52.8371 81.9965C56.1528 82.3473 57.9518 81.1789 58.4332 80.8031ZM40.3107 133.634C41.8851 136.791 52.0892 139.875 52.1917 139.905C53.3038 140.233 62.2297 142.219 64.75 140.559C64.9845 140.404 65.1413 140.215 65.2302 140.069C65.3053 139.945 65.3429 139.713 65.3491 139.658C65.6478 137.034 61.671 134.896 60.4449 134.304C60.3854 134.275 60.3476 134.219 60.3434 134.153C60.3392 134.086 60.3723 134.02 60.4276 133.984C60.4811 133.949 60.5475 133.946 60.6047 133.976H60.6054C65.8985 136.711 65.8209 139.037 65.6505 139.731C66.65 139.709 71.1134 139.519 72.2834 137.884C72.449 137.653 72.5649 137.405 72.5571 137.136C72.5518 136.953 72.4826 136.524 72.4431 136.411C71.9699 135.058 71.0929 133.887 70.1178 132.92C69.5373 132.356 68.8167 131.751 67.9246 131.122C66.8948 130.414 66.0142 129.963 65.6699 129.796C65.61 129.766 65.5724 129.709 65.5689 129.641C65.5656 129.573 65.6003 129.506 65.6569 129.471C65.7106 129.438 65.7763 129.437 65.8326 129.469C66.8888 130.065 67.7851 130.65 68.5463 131.213C68.7831 131.387 69.0245 131.573 69.2664 131.771C71.8702 133.889 72.5675 135.624 72.753 136.361C73.4731 135.161 73.5832 133.931 73.0796 132.699C72.015 130.094 68.3383 128.04 66.2032 127.615C64.6799 127.312 63.0602 127.557 61.9693 127.816C60.3843 128.191 58.9145 129.091 57.8305 130.349C55.6812 132.843 53.9311 135.81 53.8212 135.997C53.7308 136.2 53.1232 136.581 49.7416 136.445C45.2395 136.265 41.0293 133.256 40.1493 132.589C40.0737 132.922 40.127 133.266 40.3107 133.634ZM44.8049 118.246C43.5194 124.64 40.6402 131.402 40.249 132.304C40.8911 132.8 45.1725 135.976 49.7535 136.16C53.0284 136.291 53.5121 135.922 53.561 135.874L53.5672 135.863C53.5851 135.832 55.3856 132.748 57.6127 130.163C58.0898 129.609 58.6423 129.127 59.2424 128.721C57.5015 128.71 51.5499 128.597 48.953 127.568C48.9202 128.05 48.6182 128.326 48.6182 128.326C48.6211 128.27 48.9085 122.614 49.9766 117.332L50.0533 116.952C51.0934 111.811 52.3766 105.467 53.2755 98.1963C52.5263 99.7262 50.6103 102.813 46.6474 104.939C47.1444 105.272 47.4882 105.755 47.4102 105.701C47.3834 105.683 47.2218 105.586 47.0483 105.478C46.7973 105.322 46.3556 105.095 45.6844 104.909C45.7562 106.075 46.0445 112.079 44.8049 118.246ZM41.9895 104.338C44.0748 104.19 45.4639 104.485 46.3293 104.81C51.6638 101.975 53.3649 97.2857 53.3996 97.1814C53.4323 97.0644 55.8585 88.1156 50.9123 77.9585C48.3454 72.6878 43.5617 67.8131 38.1155 64.9189C37.8876 64.7977 37.678 64.6882 37.485 64.587C35.2884 63.4369 35.1542 63.3175 34.5772 60.5877C34.183 61.1207 33.6216 61.5742 32.7658 61.8801C32.173 62.0919 31.5915 62.2549 30.9623 62.2549C30.9579 62.2549 30.9532 62.2547 30.9486 62.2547C37.041 68.3832 38.5707 74.922 38.9373 78.2946C39.1553 80.3016 39.1752 83.965 39.196 87.8437C39.2101 90.4762 39.2249 93.198 39.3076 95.339C39.5172 100.756 41.6516 103.877 41.9895 104.338ZM39.261 107.224C40.1007 105.045 41.1916 104.516 41.6726 104.387C41.1411 103.619 39.2196 100.502 39.0204 95.35C38.9375 93.2044 38.9227 90.48 38.9086 87.8452C38.8876 83.974 38.8679 80.3176 38.6514 78.3254C38.286 74.9624 36.6521 68.3315 30.4951 62.2213C29.9362 62.1485 29.3322 61.9375 28.6464 61.5181C28.3543 61.396 27.8389 61.2317 27.2811 61.0723C29.7078 62.8796 30.9418 65.2583 31.171 65.732C32.6013 65.8732 33.4142 66.6213 33.4142 66.6213C33.3921 66.61 31.1883 65.5099 29.7273 66.3034C28.9984 66.6996 28.5672 67.5109 28.4463 68.7149C28.2292 70.8745 28.1956 72.8329 28.1688 74.4066C28.1374 76.25 28.1147 77.5818 27.8378 78.3575C26.9732 80.7817 25.9933 85.3865 27.806 87.2683C29.6344 89.1664 33.6192 90.0049 34.5504 90.1791C34.8544 89.6468 35.1684 89.1913 35.4648 88.7613C36.3295 87.5072 37.0868 86.402 37.1036 84.0736C36.536 84.0525 34.3855 83.906 32.3313 82.9352C32.4069 83.3595 32.3225 84.3195 32.3225 84.3195C30.2435 75.4956 34.2022 72.8277 34.3718 72.7186C34.3718 72.7186 34.0713 73.2704 33.561 73.9861C34.1655 74.7473 37.0757 78.6318 37.3664 83.1745C37.5617 86.2267 36.6999 87.4764 35.7021 88.9232C35.4142 89.3406 35.1098 89.7827 34.8146 90.2972C34.7779 90.361 34.6466 90.5998 34.6187 90.6526C34.3923 91.0817 34.175 91.5616 33.9798 92.1157C33.9079 92.3193 33.7007 93.0135 33.6669 93.138C32.9019 95.9563 33.0379 97.7023 33.1699 99.393C33.2572 100.514 33.3399 101.572 33.1597 102.881C32.4947 107.711 30.3536 116.167 28.4848 121.347C26.6252 126.5 25.8454 126.627 22.9446 127.099C22.7744 127.127 22.5969 127.155 22.4114 127.187C21.6661 127.312 20.6185 127.361 19.4406 127.361C16.7512 127.361 13.386 127.107 11.3931 126.933C13.7399 127.928 15.5056 130.363 17.1467 132.628C17.7634 133.479 18.3457 134.283 18.9539 135.018C19.0671 135.155 19.2369 135.237 19.4198 135.243C21.1737 135.304 27.2964 135.18 32.4724 130.975L33.2148 130.452C35.02 119.528 38.4226 109.4 39.261 107.224ZM37.1031 83.7877C37.0996 83.5968 37.0927 83.4002 37.0795 83.1928C36.8022 78.8583 34.087 75.1248 33.3921 74.2353C32.5126 75.6003 31.557 78.1884 32.2716 82.5899C34.3218 83.6144 36.5272 83.7659 37.1031 83.7877ZM0.573498 137.493C0.957755 138.983 4.76606 139.481 5.63296 139.575C5.56774 138.602 6.20735 137.702 7.11118 136.893C7.82884 136.217 8.73222 135.607 9.63847 135.087C9.82154 134.973 9.99863 134.858 10.1759 134.755C10.2887 134.69 10.5385 134.557 10.5385 134.557C10.5385 134.557 10.7725 134.442 10.8447 134.58C10.917 134.718 10.7638 134.804 10.7074 134.833C10.4085 134.987 10.1025 135.151 9.79678 135.326C8.91064 135.877 7.95066 136.506 7.20713 137.191C6.56994 137.812 6.10764 138.483 5.97432 139.184C5.9458 139.333 5.93408 139.483 5.93541 139.635C5.93718 139.845 5.99312 140.005 6.01545 140.058C6.09438 140.244 6.23366 140.403 6.43552 140.54C8.0957 141.669 13.5715 140.956 20.726 138.68C28.4569 136.22 31.9561 132.85 32.8445 131.876C32.9579 131.752 33.0317 131.596 33.0583 131.426C33.0883 131.233 33.1188 131.04 33.15 130.848L32.6461 131.202C27.4003 135.465 21.1887 135.591 19.4094 135.529C19.1441 135.52 18.8971 135.4 18.7315 135.2C18.1176 134.458 17.5325 133.65 16.9133 132.795C14.889 130.002 12.8167 127.144 9.80495 126.786C9.75256 126.78 9.71541 126.777 9.69794 126.775V126.774C8.32961 126.639 6.76848 127.018 4.93143 128.148C2.3241 129.753 0.796578 131.455 0.391317 133.208C0.167351 134.177 0.361032 134.922 0.512922 135.308C1.43465 133.079 4.48594 130.815 5.82464 129.822C5.9929 129.697 6.31701 129.457 6.31701 129.457C6.31701 129.457 6.46559 129.345 6.558 129.452C6.65285 129.562 6.54408 129.672 6.49168 129.715C6.31613 129.861 5.96857 130.094 5.75367 130.254C2.78552 132.464 1.40679 134.071 0.833062 135.29C0.768503 135.434 0.710573 135.576 0.667682 135.72C0.618599 135.883 0.514688 136.261 0.499211 136.382C0.444823 136.804 0.490146 137.169 0.573498 137.493Z" fill="black"/>
<path d="M23.923 53.3304C24.4817 53.9401 25.0555 54.7117 25.6447 55.5061C26.9874 57.3158 28.3756 59.1873 29.7028 59.3101C32.2233 59.5439 33.8352 59.492 34.8624 55.7408H32.0665C31.8742 55.7408 31.7172 55.5893 31.7119 55.3979C31.7015 55.0297 31.6772 54.4086 31.6212 53.751C30.6427 53.1329 29.7404 53.3821 29.3603 53.5405C30.0234 54.0928 30.8565 55.3104 30.7928 55.9436C29.9208 54.184 29.0181 53.3658 27.7426 52.9614C26.0694 52.4304 24.4311 53.0911 23.923 53.3304ZM26.6774 29.6838C26.5841 29.8991 26.382 29.9431 26.2372 29.9145C26.0926 29.8863 25.9219 29.77 25.9171 29.5349C25.8613 26.7836 25.8213 21.8551 26.1804 19.7594C26.7913 16.1941 27.2038 10.4188 26.9111 7.15398C27.7486 8.73714 29.7935 13.0131 29.6847 16.8348C29.5436 21.7968 29.1649 23.826 27.7548 27.1744C27.4554 27.8848 27.049 28.8273 26.6774 29.6838ZM15.2686 6.45477C16.4214 9.71611 17.755 20.1655 18.0018 24.7856C18.1114 26.8394 18.5193 28.9505 19.214 31.06C19.3223 31.3886 19.6148 31.4847 19.8315 31.4693C20.05 31.4526 20.3254 31.3111 20.382 30.9678L20.4738 30.4173C21.0026 27.267 21.8019 22.5065 20.5364 16.3622C19.3829 10.7615 16.4103 7.52458 15.2686 6.45477Z" fill="#FE7758"/>
<path d="M36.4377 44.5459C36.4505 44.4889 36.4633 44.4339 36.4762 44.3734C36.4605 44.2883 36.34 43.8346 35.512 43.4351L35.4395 43.4002L35.4317 43.3201C35.4295 43.2981 35.1945 41.1004 33.1841 39.7168L31.8114 38.8574C31.7828 38.8396 31.7572 38.8513 31.7477 38.8572C31.7362 38.8643 31.7174 38.881 31.7212 38.9122C31.8271 39.8432 32.1689 42.0807 33.116 43.8601C33.5213 43.8907 35.4658 44.0604 36.4377 44.5459ZM22.2056 34.6563C22.5885 32.5692 23.4842 31.3952 24.2297 30.7591C23.6177 31.7455 23.2931 33.0032 23.2403 33.2194C22.9206 33.5781 22.6431 33.9808 22.4406 34.4363L22.4435 34.4377C22.3601 34.5017 22.2805 34.5745 22.2056 34.6563ZM26.3407 88.3403C26.5943 88.107 27.1846 88.2431 28.0471 88.7334C29.9193 89.7977 33.1209 90.2039 33.4833 90.247C33.8704 90.3387 34.189 90.4036 34.4043 90.4443C34.1127 90.9871 33.8343 91.61 33.5945 92.3618C33.5876 92.3497 33.5823 92.3405 33.575 92.3277C33.4514 92.1286 33.2602 91.8553 32.9896 91.579C32.466 91.0175 31.5319 90.5099 30.6805 90.5345C30.8436 90.5972 31.1476 90.6922 31.4899 90.8563C31.831 91.0214 32.2042 91.2607 32.5153 91.5423C32.8275 91.8223 33.08 92.1344 33.2471 92.3774C33.3336 92.4971 33.3902 92.6053 33.437 92.6759C33.4554 92.7053 33.4682 92.7258 33.4795 92.7443C32.6511 95.6284 32.732 97.4295 32.8604 99.1185C28.4565 98.8394 27.2735 95.4153 27.0528 94.5914H28.1136L28.0174 94.3875C25.9518 90.0137 25.9655 88.6848 26.3407 88.3403ZM23.0376 43.4844C22.5277 40.6386 23.5434 37.523 23.9666 36.4026C23.9916 36.3362 24.0451 36.2865 24.1134 36.2663C24.1813 36.2465 24.2522 36.2586 24.3088 36.2997C25.862 37.4304 26.9712 39.1489 28.401 42.64C28.7293 43.442 28.9064 44.1645 28.9405 44.7924C26.5947 43.2924 23.6993 43.4296 23.0376 43.4844ZM26.9664 31.2628C26.0267 31.9732 25.1026 32.9462 24.9772 33.0795C24.5016 33.2748 24.0124 33.6012 23.5801 34.1348C23.3367 34.0989 23.1019 34.1225 22.8824 34.1992C23.8182 32.5433 25.7986 31.6584 26.9664 31.2628ZM24.3285 34.4249C24.1813 34.3316 24.0347 34.2615 23.8896 34.2113C24.6969 33.2865 25.6964 33.0969 26.3626 33.0934C25.4192 33.4688 24.5237 34.2489 24.3285 34.4249ZM10.6869 2.35876C11.5589 4.27954 12.7325 7.17862 12.8563 10.1666C12.8985 11.1827 12.88 12.8352 12.8585 14.7485C12.8183 18.3395 12.7683 22.8083 13.1311 24.6739C13.6721 27.4546 14.2315 30.3302 19.5731 37.026C19.5731 37.026 19.0491 36.8271 18.9047 36.6428C18.6305 36.8214 17.8731 37.4623 17.9096 39.0888L17.9177 39.4355C17.9666 41.4506 18.0513 44.9921 17.241 46.848C18.0557 46.5416 20.2253 45.9287 23.8684 46.277C21.4815 42.9412 23.1231 37.8235 23.6977 36.3021C23.7548 36.151 23.8764 36.0382 24.0316 35.9922C24.1861 35.9463 24.3489 35.9746 24.4789 36.069C26.08 37.2345 27.2153 38.9861 28.6674 42.5323C29.294 44.0624 29.4101 45.2974 29.0123 46.2029C28.8405 46.594 28.604 46.8447 28.409 46.9991C32.0736 47.5703 32.9891 47.1896 33.7426 46.8744C33.9316 46.7955 34.1103 46.7207 34.3205 46.6646C34.5067 46.6149 34.6787 46.5812 34.8385 46.55C35.0327 46.5122 35.2053 46.4779 35.3616 46.4202C32.3917 45.3405 31.608 40.4604 31.4357 38.9445C31.4205 38.8124 31.4817 38.6861 31.5951 38.6153C31.709 38.5438 31.8509 38.544 31.9648 38.6155L32.9814 39.252C32.6396 38.381 31.7415 36.3413 30.7479 36.0965C30.468 36.0274 30.2051 36.1143 29.9429 36.3611L29.8527 36.446L29.7552 36.3697C29.7358 36.3545 27.8262 34.896 24.8098 34.8109C24.9595 34.9569 25.1079 35.1263 25.2533 35.3225C25.0422 35.1221 24.8406 34.9563 24.6482 34.8215C24.6405 34.816 24.5173 34.7357 24.512 34.7324C22.6469 33.5434 21.7024 35.388 21.5717 37.578C21.5366 37.8815 21.524 38.187 21.5098 38.4948C21.4172 37.8851 21.4075 37.2635 21.4705 36.6446C21.5078 36.0903 21.635 35.6097 21.8271 35.2202C22.2277 32.015 23.7638 30.6401 24.6451 30.1056C24.7214 30.0597 24.818 30.0759 24.8748 30.1439C24.9317 30.2119 24.9294 30.3093 24.87 30.3753C24.2671 31.0433 23.8616 32.1443 23.6606 32.7925C25.1397 31.4425 27.1925 30.8732 27.7004 30.7485C27.7791 30.7298 27.8563 30.7692 27.8857 30.8431L27.9248 30.9782L27.8156 31.0395C27.0364 31.4779 26.0804 32.3768 25.5589 32.8961C26.2076 32.7533 26.7643 32.8164 27.0146 32.8607C27.0979 32.8752 27.158 32.9464 27.1578 33.03C27.1576 33.1147 27.0961 33.1868 27.0112 33.2013C26.107 33.3542 25.0612 34.1772 24.6582 34.5195C25.4178 34.5285 26.1081 34.6204 26.7218 34.7575C26.9451 34.0334 27.8934 31.0406 29.2807 27.8024C30.4773 25.0097 32.2166 19.2613 30.4238 12.1386C28.6685 5.16525 25.734 2.01477 24.8764 1.21527C24.7959 1.14005 24.6898 1.14995 24.6232 1.18096C24.589 1.19723 24.5098 1.24584 24.5169 1.349C25.1592 10.8935 22.7705 30.9841 22.7464 31.1858L22.7424 31.219L21.8339 32.6031C21.7561 32.7214 21.7141 32.8602 21.7148 33.0016C21.7159 33.2687 21.721 33.5062 21.7276 33.7057C21.7411 34.1181 21.8076 34.2758 21.6409 34.3105C21.4795 34.3442 21.4552 34.1539 21.4415 33.7593C21.4052 32.7241 21.4028 30.6003 21.8474 28.6544C22.7541 24.6855 22.8344 20.9755 22.0931 17.3119C21.113 12.4683 14.7769 1.12949 10.8627 0.787477C10.7093 0.77604 10.5706 0.865778 10.5185 1.0094C10.4278 1.25684 10.3843 1.69211 10.6869 2.35876ZM25.8969 19.7115C26.5361 15.9808 26.9577 9.82368 26.5746 6.70332C26.5646 6.62304 26.5622 6.31644 26.524 6.08044C26.4662 5.72413 26.8629 6.466 26.9467 6.61689C27.5699 7.7386 30.0941 12.5607 29.9721 16.843C29.8315 21.7895 29.43 23.9366 28.0199 27.2851C27.7205 27.9961 27.3139 28.9395 26.9414 29.797C26.8147 30.0887 26.556 30.2079 26.3168 30.2079C26.2708 30.2079 26.2255 30.2035 26.1819 30.1951C25.9126 30.1426 25.6372 29.9198 25.6296 29.5408C25.5735 26.7792 25.5337 21.8302 25.8969 19.7115ZM32.4857 43.9971C31.8054 43.9509 31.2213 44.0035 30.5445 43.8966C31.1373 43.6076 31.952 43.5684 32.4857 43.9971ZM30.2624 44.9387C31.1629 44.4018 32.3641 44.6143 33.2569 45.0689C32.2504 45.0044 31.2701 44.7931 30.2624 44.9387ZM31.0241 36.8351C31.4059 37.0629 31.6606 37.426 31.8618 37.8043C31.5381 37.5543 31.2584 37.2532 30.9018 37.077C30.3139 36.7596 30.365 38.153 30.2905 38.4941C30.0714 37.9271 30.0342 36.3754 31.0241 36.8351ZM15.1848 5.99334C16.0526 6.74687 19.5401 10.1008 20.818 16.3046C22.0944 22.5011 21.29 27.2932 20.7574 30.4641L20.6657 31.014C20.5874 31.4884 20.2014 31.7277 19.8536 31.7543C19.8313 31.7561 19.8087 31.7568 19.7857 31.7568C19.4546 31.7568 19.0809 31.5744 18.9407 31.1488C18.2381 29.0154 17.8253 26.8795 17.7143 24.8006C17.4291 19.457 15.9646 8.74155 14.8572 6.18887C14.8284 6.12289 14.7115 5.75184 14.549 5.46108C14.4406 5.26731 15.0632 5.88755 15.1848 5.99334ZM45.6842 104.909C46.3554 105.095 46.7972 105.322 47.0481 105.478C47.2217 105.586 47.3833 105.683 47.41 105.701C47.4881 105.755 47.1443 105.272 46.6473 104.94C50.6103 102.813 52.5261 99.7264 53.2754 98.1965C52.3764 105.467 51.0932 111.811 50.0532 116.952L49.9765 117.332C48.9084 122.615 48.6209 128.27 48.6181 128.326C48.6181 128.326 48.9201 128.05 48.9528 127.568C51.5497 128.597 57.5013 128.71 59.2422 128.721C58.6419 129.128 58.0896 129.61 57.6125 130.163C55.3855 132.748 53.5849 135.832 53.567 135.863L53.5608 135.874C53.5119 135.922 53.0282 136.291 49.7534 136.16C45.1726 135.976 40.8909 132.801 40.2489 132.304C40.64 131.402 43.5193 124.64 44.8047 118.246C46.0446 112.08 45.7563 106.075 45.6842 104.909ZM52.8372 81.9965C52.4054 80.6451 51.8617 79.252 51.1712 77.834C51.1239 77.7368 51.0704 77.6409 51.0218 77.5439C51.8509 77.5901 54.4881 77.5795 56.148 75.796C56.0658 76.8152 56.1626 79.155 58.4332 80.803C57.9519 81.1791 56.1529 82.3475 52.8372 81.9965ZM22.4114 127.187C22.5971 127.156 22.7745 127.127 22.9447 127.099C25.8454 126.628 26.6252 126.501 28.4848 121.347C30.3537 116.167 32.4948 107.711 33.1598 102.882C33.34 101.572 33.2573 100.514 33.17 99.3934C33.038 97.7027 32.9018 95.9566 33.667 93.1384C33.7008 93.0139 33.908 92.3198 33.9798 92.1161C34.1753 91.5621 34.3924 91.0824 34.6188 90.653C34.6466 90.6005 34.778 90.3614 34.8147 90.2976C35.1098 89.7832 35.4143 89.3411 35.7021 88.9236C36.6999 87.4768 37.5617 86.2271 37.3665 83.1749C37.076 78.6324 34.1655 74.748 33.5611 73.9865C34.0714 73.2708 34.3718 72.719 34.3718 72.719C34.2022 72.8283 30.2438 75.496 32.3225 84.32C32.3225 84.32 32.4072 83.3601 32.3314 82.9356C34.3855 83.9065 36.5363 84.0529 37.1036 84.0741C37.0868 86.4024 36.3298 87.5076 35.4649 88.7617C35.1684 89.1917 34.8545 89.647 34.5505 90.1795C33.619 90.0053 29.6345 89.1669 27.8061 87.2688C25.9933 85.3871 26.9732 80.7822 27.8379 78.3579C28.1147 77.5822 28.1375 76.2504 28.1689 74.4071C28.1956 72.8336 28.2292 70.875 28.4463 68.7153C28.5673 67.5111 28.9984 66.6998 29.7273 66.3039C31.1883 65.5103 33.3922 66.6103 33.4143 66.6217C33.4143 66.6217 32.6013 65.8737 31.1711 65.7325C30.9418 65.2587 29.7079 62.88 27.2812 61.0727C27.839 61.2319 28.3544 61.3965 28.6464 61.5185C29.3323 61.938 29.9363 62.1489 30.4952 62.2217C36.6522 68.332 38.286 74.9629 38.6515 78.3258C38.8679 80.3181 38.8876 83.9746 38.9086 87.8457C38.9228 90.4804 38.9376 93.2048 39.0205 95.3504C39.2197 100.502 41.1412 103.619 41.6727 104.387C41.1916 104.516 40.1007 105.045 39.261 107.225C38.4227 109.4 35.0201 119.528 33.2146 130.452L32.4722 130.975C27.2962 135.181 21.1735 135.305 19.4196 135.244C19.2368 135.238 19.067 135.155 18.9538 135.018C18.3456 134.283 17.7632 133.48 17.1466 132.629C15.5054 130.363 13.7398 127.928 11.3929 126.934C13.3858 127.108 16.7513 127.361 19.4404 127.361C20.6186 127.361 21.6659 127.312 22.4114 127.187ZM38.1627 64.6202C38.9279 64.5181 40.5761 64.3816 41.7419 64.8786C43.2314 65.5136 45.135 68.3293 45.7585 70.3084C43.5491 68.065 40.9829 66.1187 38.2513 64.667C38.2204 64.6505 38.1927 64.636 38.1627 64.6202Z" fill="#8A8A8A"/>
<path d="M36.3685 44.8349C36.126 44.702 35.7996 44.5923 35.4415 44.5023C35.3214 44.7333 34.9761 45.2158 34.1726 45.3183C34.6046 45.7422 35.1096 46.0637 35.6999 46.2267C35.9599 46.0079 36.1708 45.61 36.3685 44.8349ZM35.0267 49.8754C35.0187 49.8518 35.0132 49.836 35.0059 49.8149C35.4415 49.8921 36.3192 49.9719 36.8598 49.5017C36.8693 49.4933 36.8772 49.4836 36.8865 49.4751L36.9396 50.4347C36.8943 50.6047 36.8518 50.8427 36.7987 51.1429C36.5823 52.3678 36.2219 54.4093 34.998 55.4547H32.25C32.1134 55.4547 32.0013 55.3487 31.9971 55.2128C31.9681 54.2896 31.8412 51.9211 31.2929 50.2449C31.3926 50.315 31.499 50.3808 31.621 50.4336C32.4152 50.778 33.4521 50.5726 34.7019 49.8336C34.7194 49.8848 34.7395 49.9433 34.7521 50.0214C34.808 50.2429 34.8454 50.5686 34.8558 50.9513C34.8755 51.7189 34.7494 52.7091 34.6121 53.5757C34.8114 53.2636 35.095 52.2796 35.1483 51.3441C35.179 50.8779 35.1465 50.4265 35.0778 50.0979C35.0592 50.0159 35.0419 49.9411 35.0267 49.8754ZM43.701 48.8139C43.7399 48.8295 43.9984 48.9358 44.2188 49.0836C43.9862 48.0991 42.774 45.8609 36.7311 44.5503C36.4381 45.8798 36.1041 46.3785 35.6214 46.6162C35.6694 46.9791 35.7793 48.0949 35.3869 48.5031C35.2854 48.6085 35.156 48.6632 35.0099 48.6632C34.9878 48.6632 34.965 48.6619 34.9422 48.6595C34.179 48.575 33.4216 47.6621 33.2025 47.3777C32.8087 47.4923 32.2962 47.5796 31.5153 47.5796C30.4494 47.5796 28.8852 47.4175 26.4464 46.9431C20.457 45.7776 17.3644 47.092 17.0351 47.2439C16.9797 47.3354 16.9233 47.425 16.8612 47.5028C16.4123 48.0652 15.8651 48.3848 15.3363 48.694C14.4344 49.221 13.5797 49.7205 13.2887 51.3994C13.6518 51.087 14.0767 51.087 14.0767 51.087L13.964 51.2973C13.9567 51.3109 13.3544 52.4489 13.2496 53.7112C13.4674 53.2621 14.0606 52.884 14.0606 52.884L13.9531 53.2896C13.9505 53.2999 13.7634 54.0345 13.9704 54.8991C15.0223 54.2098 17.4145 53.3296 20.1539 52.4579C19.0586 52.4349 18.4448 52.0101 18.4448 52.0101C18.4689 52.0154 19.4824 52.2323 21.0951 52.1628C24.4671 51.4598 26.1766 50.6713 28.3203 50.0955C28.9137 49.77 29.5162 49.3941 30.1231 48.9639C26.5876 49.3444 20.6754 50.0337 17.1815 50.7303C16.2229 50.9214 15.8245 51.0114 15.3509 51.1264C14.7968 51.2608 16.1223 50.6507 17.0701 50.4595C20.7597 49.7152 27.1191 48.9907 30.5945 48.6241L30.6473 48.6186C31.4169 48.5374 32.0413 48.4743 32.4585 48.4327C32.7625 48.4024 32.9584 48.3874 32.9827 48.5174C33.0064 48.6437 32.8372 48.6828 32.5067 48.7158C32.099 48.7567 31.4784 48.8198 30.7092 48.9014C30.7402 49.0088 30.8065 49.2006 30.925 49.4091C31.5215 49.2549 32.0006 49.133 32.3236 49.0517C32.5602 48.9921 32.7904 48.9578 32.8248 49.0778C32.858 49.1931 32.6723 49.2589 32.4116 49.3248C32.1098 49.4014 31.6588 49.5164 31.0944 49.6627C31.2498 49.8622 31.4585 50.0515 31.7386 50.1723C32.4742 50.4894 33.4729 50.2629 34.7072 49.499L34.7607 49.466L34.8215 49.4828C34.8335 49.4861 36.0636 49.8149 36.6714 49.2857C36.8297 49.1478 36.9312 48.958 36.9798 48.7213C36.8832 48.7143 36.7934 48.7077 36.7112 48.7017C36.3707 48.6773 36.1658 48.6846 36.168 48.5438C36.1702 48.4013 36.4132 48.3934 36.7269 48.4156C36.8142 48.4217 36.9102 48.4288 37.0134 48.4363C37.0165 48.3184 37.0086 48.1906 36.9909 48.0549C36.8529 48.0731 36.7291 48.0899 36.6221 48.1044C36.3526 48.1413 36.1983 48.1552 36.1757 48.0456C36.1529 47.9355 36.3258 47.8561 36.569 47.8224C37.145 47.7428 38.2177 47.6022 39.3358 47.4951C39.4174 47.4848 39.5498 47.4751 39.5498 47.4751C40.2529 47.4109 40.9626 47.3623 41.5679 47.3526C41.9466 47.3464 42.4859 47.4472 42.7578 47.5503C42.885 47.5985 41.9435 47.633 41.5794 47.639C40.9738 47.6489 40.2548 47.6992 39.542 47.765C39.4487 47.7736 39.3585 47.7995 39.2725 47.8365C39.2716 47.8369 39.2708 47.8374 39.2697 47.8376C39.1624 47.8835 39.0691 47.9537 38.9913 48.0401C38.883 48.1605 38.7225 48.3412 38.5405 48.5548C39.7815 48.6573 41.254 48.795 42.2968 48.9437C42.6857 48.9991 43.5005 49.318 43.2544 49.3081C42.9656 49.2967 42.6581 49.285 42.2957 49.2329C41.2089 49.0765 39.6095 48.9298 38.3148 48.8242C37.8487 49.3906 37.3373 50.0766 37.223 50.4861C37.179 50.6438 37.1339 50.8979 37.0822 51.1919C36.8587 52.4568 36.485 54.5644 35.1781 55.6751C34.3053 58.985 32.9849 59.6719 31.0373 59.6717C30.6139 59.6717 30.1609 59.6393 29.6765 59.5945C28.2211 59.4597 26.7939 57.536 25.4136 55.6755C24.1928 54.0297 23.04 52.4758 22.0457 52.3796C22.0316 52.3799 22.0177 52.3799 22.0035 52.3801C21.9104 52.3895 21.8193 52.3979 21.7289 52.4054C21.0391 52.5917 20.7736 53.5977 20.7707 53.6096C20.7707 53.6096 20.7632 52.787 21.0855 52.47C18.3261 53.3241 15.8154 54.2017 14.5207 54.905L14.6843 55.0889C16.6239 57.2666 19.4238 58.0887 22.1317 58.8843C23.7981 59.3737 25.3718 59.8399 26.5859 60.5972C26.8653 60.6705 27.3663 60.8092 27.8598 60.9694C26.8198 60.1859 26.0544 59.3433 25.5259 58.6505C24.8706 57.7916 24.8437 57.7047 24.6504 57.3159C24.5584 57.1307 25.3774 58.129 25.7442 58.5416C29.1947 62.4223 30.8224 62.271 32.6688 61.6112C34.5281 60.9465 34.8905 59.5657 35.2743 58.1037C35.397 57.6363 35.5239 57.1529 35.7026 56.6952C35.7026 56.6952 35.6732 57.7164 35.5527 58.1761C35.5312 58.2577 35.5098 58.3395 35.4879 58.4211C35.9986 57.902 36.9497 57.0088 38.1061 56.2738C39.7048 55.2576 42.1206 53.7217 42.5188 50.7356L42.567 50.3735L42.7788 50.672C42.7901 50.6881 43.0187 51.0151 43.1374 51.5454C43.2478 51.1926 43.3393 50.6456 43.2279 49.9178L43.1788 49.5976L43.4496 49.7773C43.4618 49.7852 43.6692 49.9248 43.8345 50.1633C43.8412 49.8186 43.7855 49.3818 43.5305 49.0297L43.2398 48.6281L43.701 48.8139ZM33.0298 48.0307C33.0287 48.1611 32.8361 48.169 32.5244 48.1686C30.5991 48.1659 23.6159 48.1765 19.1059 48.422C17.946 48.4851 17.5291 48.4673 17.0378 48.4719C16.333 48.4785 17.9589 48.1974 19.1561 48.1332C23.6668 47.8912 30.5606 47.8802 32.5051 47.8827C32.8293 47.8829 33.0307 47.895 33.0298 48.0307ZM39.6685 46.4071C38.4543 46.7383 37.1478 47.2648 36.5507 47.516C36.3457 47.6022 36.2188 47.6326 36.1715 47.5505C36.124 47.4683 36.2221 47.3438 36.4182 47.2611C37.0094 47.0119 38.3322 46.4774 39.5715 46.137C39.8832 46.0514 40.3079 45.9676 40.5969 45.9771C40.8326 45.9845 39.9654 46.3259 39.6685 46.4071ZM28.6544 99.1137C28.3367 98.9929 26.7121 98.2988 25.9451 96.504C25.3037 95.0033 25.4174 93.138 26.2799 90.9561C26.5584 91.7959 26.9966 92.884 27.6613 94.3052H26.6951L26.7296 94.4764C26.7389 94.523 27.7214 99.1007 32.8828 99.4062C32.883 99.4093 32.8832 99.4123 32.8834 99.4154C32.9272 99.9761 32.9694 100.521 32.9776 101.089C32.2947 101.211 28.7021 101.726 26.9345 99.4458C27.3133 99.4755 27.9557 99.5023 28.6144 99.424L28.7262 99.4106L28.7568 99.2826C28.7656 99.2093 28.7236 99.1398 28.6544 99.1137ZM27.986 46.931C27.5312 46.8553 27.0393 46.7669 26.5021 46.6622C25.7017 46.5065 24.9535 46.3939 24.2562 46.3162C23.8501 45.8007 23.5525 45.2341 23.3409 44.6398C23.9547 44.9585 24.4879 45.079 24.9409 45.079C26.0141 45.079 26.6389 44.4135 26.8346 44.1652C27.5476 44.3745 28.2765 44.6845 28.9445 45.1393C28.9314 45.489 28.8708 45.8059 28.7526 46.0787C28.5032 46.6541 28.1019 46.8766 27.986 46.931ZM49.7419 136.445C53.1235 136.581 53.731 136.2 53.8215 135.997C53.9313 135.81 55.6815 132.843 57.8307 130.349C58.9147 129.091 60.3846 128.191 61.9696 127.816C63.0602 127.557 64.6802 127.312 66.2035 127.615C68.3383 128.04 72.0153 130.094 73.0799 132.699C73.5835 133.931 73.4734 135.161 72.7533 136.361C72.5676 135.624 71.8705 133.889 69.2667 131.771C69.0246 131.573 68.7832 131.387 68.5466 131.213C67.7854 130.65 66.8891 130.065 65.8329 129.469C65.7765 129.437 65.7111 129.438 65.6572 129.471C65.6003 129.506 65.5658 129.573 65.5692 129.642C65.5725 129.709 65.6101 129.766 65.6702 129.796C66.0144 129.963 66.8948 130.414 67.9249 131.122C68.817 131.751 69.5375 132.356 70.1181 132.92C71.0931 133.887 71.9702 135.058 72.4433 136.411C72.4827 136.524 72.5521 136.953 72.5574 137.136C72.5652 137.405 72.4493 137.653 72.2837 137.884C71.1137 139.519 66.6503 139.709 65.6507 139.731C65.8214 139.037 65.8988 136.711 60.6057 133.976C60.5482 133.946 60.4816 133.949 60.4283 133.984C60.3731 134.02 60.3399 134.086 60.3441 134.153C60.3481 134.219 60.3861 134.275 60.4456 134.304C61.6715 134.896 65.6483 137.034 65.3498 139.658C65.3436 139.712 65.3061 139.945 65.2309 140.069C65.142 140.215 64.9853 140.404 64.7507 140.559C62.2305 142.219 53.3046 140.233 52.1925 139.905C52.0899 139.875 41.8858 136.791 40.3114 133.634C40.1277 133.266 40.0744 132.922 40.1505 132.589C41.0296 133.256 45.24 136.265 49.7419 136.445ZM30.9621 62.2554C31.5916 62.2554 32.1728 62.0924 32.7656 61.8806C33.6214 61.5746 34.1828 61.1211 34.577 60.5882C35.154 63.3177 35.2882 63.4374 37.4848 64.5874C37.6778 64.6886 37.8874 64.7982 38.1153 64.9193C43.5615 67.8136 48.3452 72.6882 50.9121 77.959C55.8582 88.116 53.4321 97.0651 53.3994 97.1819C53.3647 97.2861 51.6638 101.975 46.3291 104.81C45.4638 104.486 44.0749 104.19 41.9893 104.338C41.6515 103.877 39.5168 100.756 39.3075 95.3396C39.2248 93.1987 39.21 90.4767 39.1958 87.8444C39.1748 83.9656 39.1551 80.3023 38.9371 78.2953C38.5706 74.9226 37.0411 68.3839 30.9484 62.2554C30.9531 62.2552 30.9577 62.2554 30.9621 62.2554ZM60.6373 76.217C60.5389 76.1422 60.4451 76.06 60.3574 75.9713C59.7907 75.3993 59.5192 74.6204 59.3981 73.875C59.301 73.9852 59.1933 74.1544 59.1089 74.3541C58.9267 74.7687 58.8444 75.2794 58.7427 75.46C58.6474 75.0003 58.7206 74.4434 58.9185 74.0457C59.0165 73.8469 59.1409 73.6914 59.2459 73.5968C59.2868 73.5612 59.3207 73.5348 59.3494 73.5132C59.2594 72.6425 59.3534 71.8755 59.391 71.6248C58.4692 70.8158 58.7542 69.2388 58.8347 68.8764C58.7489 68.7717 58.6795 68.6681 58.6227 68.5662C58.5029 68.4371 57.7277 67.5343 57.4929 65.5765C57.3793 64.6288 56.8555 63.7726 56.0563 63.2273C55.3561 62.7496 54.552 62.5783 53.8504 62.7557C52.9349 62.988 52.1239 63.7319 51.9647 64.4858C51.8573 64.995 52.0481 65.4569 52.517 65.8218C52.8442 66.0765 53.2152 66.3303 53.6079 66.5991C54.9183 67.4962 56.404 68.513 56.4542 69.8146L56.4617 70.0152C56.5201 71.5907 56.6085 73.9718 57.9112 74.969C57.9112 74.969 57.3043 74.8698 56.9663 74.2685C56.8146 74.5421 56.6136 75.0366 56.4953 75.3616C56.4635 75.5103 55.8338 78.6612 58.7233 80.6566C58.9459 80.6874 60.3242 80.8541 60.9862 80.3944C60.8621 79.8676 60.9999 79.0459 61.0518 78.7794C60.1367 77.9634 60.5055 76.6065 60.6373 76.217ZM60.4604 79.7816C59.3914 79.7478 58.7226 78.5497 58.8986 77.5747C59.1635 78.5036 59.5714 79.3398 60.4604 79.7816ZM0.66774 135.72C0.710632 135.577 0.768562 135.434 0.83312 135.29C1.40707 134.071 2.78558 132.465 5.75373 130.254C5.96863 130.094 6.31619 129.861 6.49174 129.716C6.54413 129.672 6.65269 129.562 6.55806 129.452C6.46564 129.345 6.31707 129.457 6.31707 129.457C6.31707 129.457 5.99295 129.698 5.8247 129.823C4.48599 130.816 1.43471 133.08 0.51298 135.308C0.36109 134.922 0.16741 134.177 0.391376 133.209C0.796858 131.455 2.32438 129.753 4.93149 128.149C6.76854 127.018 8.32967 126.64 9.698 126.775V126.775C9.71547 126.777 9.75261 126.781 9.80501 126.786C12.8165 127.144 14.8888 130.002 16.9133 132.796C17.5326 133.651 18.1176 134.458 18.7316 135.2C18.8972 135.401 19.1441 135.521 19.4094 135.53C21.1888 135.592 27.4004 135.465 32.6462 131.203L33.1501 130.848C33.1189 131.041 33.0884 131.234 33.0583 131.427C33.032 131.597 32.9579 131.752 32.8445 131.876C31.9562 132.851 28.4572 136.221 20.726 138.68C13.5715 140.956 8.09576 141.669 6.43558 140.541C6.23372 140.403 6.09466 140.244 6.01551 140.059C5.99296 140.006 5.93723 139.845 5.93546 139.636C5.93414 139.484 5.94608 139.333 5.97438 139.184C6.10792 138.484 6.57 137.812 7.20719 137.192C7.95072 136.507 8.91092 135.878 9.79683 135.326C10.1026 135.152 10.4086 134.987 10.7075 134.834C10.7639 134.805 10.9171 134.719 10.8448 134.581C10.7725 134.443 10.5386 134.557 10.5386 134.557C10.5386 134.557 10.289 134.691 10.176 134.756C9.99869 134.859 9.8216 134.974 9.63853 135.088C8.7325 135.608 7.8289 136.217 7.11123 136.894C6.20741 137.702 5.56779 138.603 5.63302 139.576C4.76612 139.481 0.957814 138.984 0.573556 137.494C0.489984 137.169 0.444882 136.805 0.49927 136.382C0.514746 136.261 0.618879 135.884 0.66774 135.72ZM68.8491 67.6686C69.3814 68.5955 69.0175 69.3116 68.8961 69.5058C68.2954 69.4896 67.7367 69.7935 67.4652 70.0161C67.3591 70.0799 66.7642 69.8841 66.3299 69.7405C65.2236 69.3745 63.7089 68.8737 62.8575 69.5177C62.6729 69.6576 62.5318 69.8472 62.4303 70.0806C62.0339 69.9191 60.7878 69.2624 60.6132 67.3244C60.5718 66.8656 60.668 66.5443 60.9077 66.3426C61.5418 65.8077 63.0463 66.1983 64.0414 66.4565C64.3151 66.5276 64.5519 66.5889 64.7277 66.6197C64.9981 66.6672 65.347 66.6862 65.7509 66.7081C66.8603 66.7684 68.3795 66.8511 68.8491 67.6686ZM64.2988 73.9102C63.5435 73.6775 62.6247 73.0436 62.5369 71.345C62.4964 70.5627 62.6629 70.0245 63.0319 69.7454C63.7626 69.192 65.194 69.6657 66.2395 70.0119C67.0491 70.2796 67.4476 70.4012 67.6483 70.2369C67.9364 70.0007 68.5913 69.6512 69.2181 69.838C69.7577 69.999 70.1685 70.5226 70.4391 71.3947C71.1601 73.7195 69.2439 75.4879 69.163 75.5611C69.1363 75.5792 69.1166 75.595 69.0969 75.6084C68.8798 75.1877 68.6532 74.9706 68.4181 74.7462C68.379 74.7088 68.3397 74.6715 68.2999 74.6323C68.2008 74.0596 67.9782 73.7598 67.8296 73.5594C67.8278 73.557 67.8269 73.5555 67.8252 73.553C67.9136 73.4004 67.905 73.105 67.905 73.105C67.4259 73.729 65.7012 74.342 64.2988 73.9102ZM68.4223 66.9092C67.7 66.5296 66.6563 66.4708 65.7666 66.4224C65.4628 66.4059 65.192 66.391 64.9674 66.3648C68.4199 59.0956 72.4654 59.0466 74.58 59.6732L74.6335 59.6891C74.9843 59.7909 75.66 60.2262 75.7093 60.8169C75.7604 61.4304 75.125 62.0719 73.872 62.6719C70.8906 64.1 68.8278 66.4293 68.4223 66.9092Z" fill="white"/>
<path d="M22.6895 52.2952C23.0256 52.4722 23.3676 52.7562 23.7156 53.1116C24.1447 52.8945 25.9347 52.0889 27.8272 52.688C28.2853 52.8329 28.7098 53.0553 29.1051 53.3419C29.399 53.1956 30.4324 52.7753 31.5891 53.3986C31.4695 52.181 31.2393 50.7221 30.7974 49.7487C30.7956 49.746 30.7941 49.7434 30.7923 49.7407C30.1169 49.9165 29.3057 50.1303 28.4089 50.3718C25.919 51.2988 23.923 51.7781 22.6895 52.2952ZM37.9672 48.7967C37.6846 49.1484 37.3987 49.5331 37.1964 49.8742L37.1542 49.1128C37.2075 49.0013 37.2453 48.8775 37.2696 48.7431C37.4816 48.7589 37.7169 48.7769 37.9672 48.7967ZM30.4615 49.0776C30.4974 49.1867 30.5557 49.3301 30.6366 49.4836C30.2466 49.5848 29.8148 49.6978 29.3486 49.8212C29.7178 49.5912 30.0886 49.3481 30.4615 49.0776ZM34.3945 46.9406C34.5738 46.8929 34.7397 46.8603 34.8935 46.8304C35.0565 46.7985 35.2055 46.766 35.3443 46.7238C35.4091 47.2668 35.4153 48.0595 35.179 48.3052C35.1239 48.3621 35.0576 48.3843 34.974 48.3751C34.3844 48.31 33.7505 47.6 33.4934 47.2818C33.622 47.2345 33.7399 47.1854 33.8537 47.1379C34.0337 47.0629 34.2035 46.9916 34.3945 46.9406ZM37.2926 48.1701C37.5444 48.1866 38.0295 48.191 38.5853 48.0637C38.4693 48.1952 38.3333 48.3524 38.1882 48.5264C37.865 48.5005 37.5645 48.4774 37.2981 48.4576C37.3012 48.3654 37.3006 48.2706 37.2926 48.1701Z" fill="#CB3616"/>
<path d="M60.9425 76.2176L60.9848 76.1123L60.8915 76.0474C60.7747 75.9662 60.6639 75.873 60.5622 75.7703C59.2087 74.4037 59.6823 71.6197 59.6874 71.5918L59.7022 71.508L59.6352 71.455C58.6737 70.6955 59.1256 68.8928 59.1305 68.8746L59.149 68.802L59.0997 68.7452C58.3823 67.9215 58.8172 67.1979 58.836 67.1676L58.8762 67.1027L58.8448 67.0327C58.4267 66.118 58.8705 65.5182 58.8897 65.4929L59.0644 65.2635L58.7756 65.2629C58.7858 65.2622 58.4504 65.1564 58.0504 63.8202C57.9386 63.4459 57.9401 63.1727 58.0548 63.0078C58.2257 62.763 58.6542 62.7339 59.0688 62.706C59.2872 62.6913 59.4935 62.6774 59.6728 62.6328C60.2642 62.4858 60.381 61.9105 60.3564 61.5132C61.8085 61.641 61.9845 62.7124 61.9914 62.7597L62.0046 62.8494L62.0922 62.8762C63.2865 63.2354 63.226 64.3215 63.2229 64.3677L63.2173 64.446L63.2806 64.4928C63.9124 64.958 64.0604 65.8015 64.0951 66.1745C63.0422 65.9016 61.4656 65.4971 60.7217 66.1239C60.4097 66.3865 60.2768 66.7989 60.3266 67.3499C60.5145 69.4332 61.9043 70.1689 62.3376 70.3491C62.2607 70.6348 62.2293 70.97 62.2492 71.3597C62.3456 73.2231 63.3705 73.9238 64.2134 74.1834C65.3228 74.5254 66.6984 74.2599 67.5419 73.7701C67.5651 73.7595 67.5846 73.7481 67.6036 73.7371C67.7395 73.9203 67.9401 74.1963 68.0228 74.7231L68.0301 74.7693L68.0632 74.8023C68.1158 74.8546 68.1676 74.9039 68.2184 74.9525C68.5821 75.2998 68.8961 75.5996 69.2041 76.727L69.2153 76.7679L69.2472 76.7961C70.1908 77.6338 70.5176 78.9392 70.0243 79.9002C69.5938 80.7388 68.6235 81.0203 68.3126 81.0907C68.2518 80.9436 68.1957 80.8092 68.1802 80.7742C67.9025 80.1412 67.474 79.2658 67.0489 78.8809C67.0232 78.8576 66.981 78.8189 66.9467 78.8033C66.9131 78.7881 66.8625 78.7712 66.7917 78.7586C66.3927 78.6878 65.1161 78.5662 64.0064 79.6164L63.9485 79.6714L63.9648 79.7493C63.9682 79.7658 64.2702 81.2185 64.2823 82.1066C63.5607 82.3743 62.9388 82.3754 62.4344 82.1038C61.5397 81.6221 61.2907 80.4395 61.2883 80.4276L61.2408 80.1922L61.237 80.1955C61.1621 79.6285 61.3476 78.7655 61.3498 78.7556L61.3683 78.6696L61.2998 78.6141C60.3151 77.8177 60.9359 76.2337 60.9425 76.2176ZM63.3047 79.1073C63.3097 79.1114 63.3184 79.1114 63.3266 79.1035C63.4115 79.0246 63.5598 78.871 63.732 78.7149C63.9204 78.5721 64.1158 78.4129 64.3 78.3148C64.3657 78.2761 64.4241 78.2332 64.4886 78.2031C64.5538 78.1743 64.6177 78.1461 64.6816 78.1179C64.8048 78.0548 64.9399 78.0152 65.0845 77.9673C65.3747 77.8773 65.7219 77.7801 66.2474 77.7434C66.6801 77.715 67.0305 77.6906 67.3075 77.6587C67.5839 77.6284 67.786 77.5954 67.9003 77.5907C67.9142 77.5903 67.9233 77.5835 67.9261 77.5747C67.9292 77.5661 67.9259 77.5553 67.9142 77.5468C67.8198 77.4788 67.6542 77.3481 67.377 77.2283C67.1015 77.111 66.7088 76.9993 66.1985 77.0323C65.5815 77.075 65.1638 77.2316 64.8419 77.3941C64.6805 77.4783 64.5375 77.558 64.4112 77.6622C64.3473 77.7108 64.2832 77.7597 64.218 77.8091C64.1545 77.8599 64.0988 77.9233 64.0365 77.9822C63.8603 78.1358 63.7013 78.3698 63.5622 78.5721C63.4393 78.7877 63.3509 78.9861 63.2998 79.0868C63.2954 79.0969 63.2985 79.1042 63.3047 79.1073Z" fill="#FFC700"/>
<path d="M62.767 93.7195C62.5797 94.5815 62.8265 95.5486 63.4944 96.5937C63.5214 96.5959 63.5554 96.5979 63.5979 96.5986C63.6965 96.603 63.8318 96.5929 63.9744 96.5656C64.262 96.5157 64.5656 96.3841 64.7199 96.3923C64.5353 96.6566 64.1913 96.8361 63.8983 96.8841C63.761 96.9107 63.6397 96.9045 63.5495 96.8975C63.5422 97.3954 63.5771 98.9742 64.2749 99.7086C64.5143 99.9607 64.8015 100.083 65.153 100.083C65.5868 100.083 66.0071 99.8801 66.4022 99.4799C67.4442 98.4241 68.1672 96.1433 68.2384 93.787C68.2417 93.6755 68.2311 93.6091 68.2151 93.6876C68.1285 94.4007 67.2846 94.9237 66.6184 94.554C66.0392 94.1543 66.0087 93.3597 66.0849 92.7471C66.1778 93.3122 66.2618 93.994 66.7544 94.3202C67.2698 94.5544 67.866 94.1873 67.9976 93.6322C68.077 93.3711 68.1126 93.0887 68.1212 92.8008C68.1249 92.6763 68.1318 92.6048 68.1318 92.5685C68.1318 92.5362 68.1917 92.6486 68.2446 92.7632C68.293 92.8683 68.3498 92.9633 68.4139 93.017C68.5877 93.1619 68.9251 93.2304 69.3458 92.9757C69.7049 92.7579 70.002 91.9578 69.9527 91.4228C69.9436 91.3241 69.8638 91.2075 69.7878 91.0874C69.6379 90.8424 69.3876 90.6339 69.3191 90.4969C69.6438 90.5294 69.9635 90.7813 70.1137 91.041C70.1895 91.1618 70.2275 91.2783 70.2514 91.3654C70.7144 91.1868 72.149 90.4027 71.973 87.5758C71.7712 84.3362 70.3639 84.3076 70.3354 84.3076H70.335L70.1747 84.314L70.1857 84.155C70.1904 84.0886 70.2793 82.5232 68.528 82.3501L68.4256 82.34L68.4022 82.2404C68.3969 82.2177 67.8718 80.0216 66.8623 79.0996C66.8285 79.0686 66.7882 79.0499 66.7427 79.0422C66.6027 79.0191 66.325 78.9874 65.9779 79.0202C66.3969 79.7447 67.8395 82.4166 68.0557 85.1808C68.6359 84.9424 69.3721 84.9646 69.9206 85.207C69.7807 85.2193 69.6452 85.2191 69.5107 85.2198C68.6257 85.2358 67.6874 85.4188 67.1758 86.226C67.2556 86.2882 67.3326 86.3544 67.402 86.4253C67.2872 86.3967 67.1851 86.3538 67.0798 86.3223C66.3432 86.0698 65.6308 86.2403 64.9987 86.7242C65.2065 86.2649 65.6684 85.9885 66.1532 85.939C66.4387 83.5431 65.0838 80.1382 64.7745 79.4007C64.6025 79.4997 64.4301 79.6193 64.2623 79.7704C64.3381 80.1463 64.6403 81.7189 64.5563 82.4682L64.5503 82.5217L64.5105 82.558C64.4858 82.5806 62.0354 84.8546 63.1011 87.8877L63.119 87.9385L63.0986 87.9884C62.8289 88.6522 62.2346 90.487 62.7181 90.9988C62.8669 91.1561 63.1318 91.1725 63.5061 91.0494C63.4926 90.5761 63.5815 90.0988 63.7783 89.6818C63.7263 90.7448 63.7812 91.7462 64.1382 92.7469C63.9824 92.5738 63.8619 92.3756 63.7637 92.1667C63.5862 92.298 62.964 92.8125 62.767 93.7195ZM67.1577 86.2095C67.1524 86.2053 67.1479 86.2003 67.1426 86.1963C66.9366 86.0419 66.6927 85.9583 66.4431 85.9363C66.7261 83.4204 65.3374 79.9857 65.0319 79.2689C65.2527 79.1697 65.4692 79.104 65.6715 79.0642C65.9815 79.5863 67.5923 82.426 67.7789 85.3258C67.4701 85.5215 67.2395 85.8129 67.1577 86.2095Z" fill="#56B847"/>
</g>
<defs>
<clipPath id="clip0_11_7323">
<rect width="76" height="141" fill="white" transform="matrix(-1 0 0 1 76 0.5)"/>
</clipPath>
</defs>
</svg>
