<svg width="24" height="24" viewBox="0 0 24 24" fill="none" xmlns="http://www.w3.org/2000/svg">
<path d="M17.24 7.85L10.56 14.53L6.68004 10.65C6.49268 10.4637 6.23923 10.3592 5.97504 10.3592C5.71085 10.3592 5.4574 10.4637 5.27004 10.65C5.08379 10.8374 4.97925 11.0908 4.97925 11.355C4.97925 11.6192 5.08379 11.8726 5.27004 12.06L9.86004 16.65C10.0474 16.8363 10.3009 16.9408 10.565 16.9408C10.8292 16.9408 11.0827 16.8363 11.27 16.65L18.65 9.27C18.7438 9.17704 18.8182 9.06644 18.8689 8.94458C18.9197 8.82272 18.9458 8.69201 18.9458 8.56C18.9458 8.42799 18.9197 8.29728 18.8689 8.17542C18.8182 8.05356 18.7438 7.94296 18.65 7.85C18.4627 7.66375 18.2092 7.55921 17.945 7.55921C17.6809 7.55921 17.4274 7.66375 17.24 7.85V7.85Z" fill="black"/>
</svg>
