<svg width="74" height="74" viewBox="0 0 74 74" fill="none" xmlns="http://www.w3.org/2000/svg">
<g filter="url(#filter0_d_48_9589)">
<path d="M3 9.53619C3 5.92635 5.92635 3 9.53618 3L60.5184 3C64.1283 3 67.0546 5.92635 67.0546 9.53618L67.0546 60.5184C67.0546 64.1283 64.1283 67.0546 60.5184 67.0546L9.53619 67.0546C5.92635 67.0546 3 64.1283 3 60.5184L3 9.53619Z" fill="white"/>
<path d="M60.5184 1.5L9.53618 1.5C5.09792 1.5 1.5 5.09792 1.5 9.53619L1.5 60.5184C1.5 64.9567 5.09792 68.5546 9.53619 68.5546L60.5184 68.5546C64.9567 68.5546 68.5546 64.9567 68.5546 60.5184L68.5546 9.53618C68.5546 5.09792 64.9567 1.5 60.5184 1.5Z" stroke="black" stroke-width="3"/>
</g>
<path d="M23.2622 17.3796C23.2622 20.6285 20.6285 23.2622 17.3796 23.2622C14.1308 23.2622 11.4971 20.6285 11.4971 17.3796C11.4971 14.1308 14.1308 11.497 17.3796 11.497C20.6285 11.497 23.2622 14.1308 23.2622 17.3796Z" fill="black"/>
<path d="M23.2622 35.0273C23.2622 38.2762 20.6285 40.9099 17.3796 40.9099C14.1308 40.9099 11.4971 38.2762 11.4971 35.0273C11.4971 31.7784 14.1308 29.1447 17.3796 29.1447C20.6285 29.1447 23.2622 31.7784 23.2622 35.0273Z" fill="black"/>
<path d="M58.5571 35.0273C58.5571 38.2762 55.9234 40.9099 52.6746 40.9099C49.4257 40.9099 46.792 38.2762 46.792 35.0273C46.792 31.7784 49.4257 29.1447 52.6746 29.1447C55.9234 29.1447 58.5571 31.7784 58.5571 35.0273Z" fill="black"/>
<path d="M23.2622 52.675C23.2622 55.9239 20.6285 58.5576 17.3796 58.5576C14.1308 58.5576 11.4971 55.9239 11.4971 52.675C11.4971 49.4261 14.1308 46.7924 17.3796 46.7924C20.6285 46.7924 23.2622 49.4261 23.2622 52.675Z" fill="black"/>
<path d="M58.5571 17.3796C58.5571 20.6285 55.9234 23.2622 52.6746 23.2622C49.4257 23.2622 46.792 20.6285 46.792 17.3796C46.792 14.1308 49.4257 11.497 52.6746 11.497C55.9234 11.497 58.5571 14.1308 58.5571 17.3796Z" fill="black"/>
<path d="M58.5571 52.675C58.5571 55.9239 55.9234 58.5576 52.6746 58.5576C49.4257 58.5576 46.792 55.9239 46.792 52.675C46.792 49.4261 49.4257 46.7924 52.6746 46.7924C55.9234 46.7924 58.5571 49.4261 58.5571 52.675Z" fill="black"/>
<defs>
<filter id="filter0_d_48_9589" x="0" y="0" width="73.0547" height="73.0546" filterUnits="userSpaceOnUse" color-interpolation-filters="sRGB">
<feFlood flood-opacity="0" result="BackgroundImageFix"/>
<feColorMatrix in="SourceAlpha" type="matrix" values="0 0 0 0 0 0 0 0 0 0 0 0 0 0 0 0 0 0 127 0" result="hardAlpha"/>
<feOffset dx="3" dy="3"/>
<feColorMatrix type="matrix" values="0 0 0 0 0 0 0 0 0 0 0 0 0 0 0 0 0 0 1 0"/>
<feBlend mode="normal" in2="BackgroundImageFix" result="effect1_dropShadow_48_9589"/>
<feBlend mode="normal" in="SourceGraphic" in2="effect1_dropShadow_48_9589" result="shape"/>
</filter>
</defs>
</svg>
