<svg width="36" height="36" viewBox="0 0 36 36" fill="none" xmlns="http://www.w3.org/2000/svg">
<g clip-path="url(#clip0_8_5698)">
<rect width="36" height="36" rx="18" fill="white"/>
<path fill-rule="evenodd" clip-rule="evenodd" d="M0 0H21.6V16.8H0V0Z" fill="#1A47B8"/>
<path fill-rule="evenodd" clip-rule="evenodd" d="M21.6 0V2.4H50.4V0H21.6ZM21.6 4.8V7.2H50.4V4.8H21.6ZM21.6 9.6V12H50.4V9.6H21.6ZM21.6 14.4V16.8H50.4V14.4H21.6ZM0 19.2V21.6H50.4V19.2H0ZM0 24V26.4H50.4V24H0ZM0 28.8V31.2H50.4V28.8H0ZM0 33.6V36H50.4V33.6H0Z" fill="#F93939"/>
<path fill-rule="evenodd" clip-rule="evenodd" d="M2.40002 2.4V4.8H4.80002V2.4H2.40002ZM7.20002 2.4V4.8H9.60002V2.4H7.20002ZM12 2.4V4.8H14.4V2.4H12ZM16.8 2.4V4.8H19.2V2.4H16.8ZM14.4 4.8V7.2H16.8V4.8H14.4ZM9.60002 4.8V7.2H12V4.8H9.60002ZM4.80002 4.8V7.2H7.20002V4.8H4.80002ZM2.40002 7.2V9.6H4.80002V7.2H2.40002ZM7.20002 7.2V9.6H9.60002V7.2H7.20002ZM12 7.2V9.6H14.4V7.2H12ZM16.8 7.2V9.6H19.2V7.2H16.8ZM2.40002 12V14.4H4.80002V12H2.40002ZM7.20002 12V14.4H9.60002V12H7.20002ZM12 12V14.4H14.4V12H12ZM16.8 12V14.4H19.2V12H16.8ZM14.4 9.6V12H16.8V9.6H14.4ZM9.60002 9.6V12H12V9.6H9.60002ZM4.80002 9.6V12H7.20002V9.6H4.80002Z" fill="white"/>
</g>
<defs>
<clipPath id="clip0_8_5698">
<rect width="36" height="36" rx="18" fill="white"/>
</clipPath>
</defs>
</svg>
