<svg width="24" height="24" viewBox="0 0 24 24" fill="none" xmlns="http://www.w3.org/2000/svg">
<path d="M14.4801 19C14.3478 18.9994 14.2169 18.9726 14.0951 18.9212C13.9732 18.8697 13.8627 18.7945 13.7701 18.7L7.85012 12.75C7.66387 12.5626 7.55933 12.3092 7.55933 12.045C7.55933 11.7808 7.66387 11.5274 7.85012 11.34L13.7701 5.41C13.8634 5.31676 13.974 5.2428 14.0959 5.19234C14.2177 5.14188 14.3483 5.11591 14.4801 5.11591C14.612 5.11591 14.7425 5.14188 14.8644 5.19234C14.9862 5.2428 15.0969 5.31676 15.1901 5.41C15.2834 5.50324 15.3573 5.61393 15.4078 5.73575C15.4582 5.85757 15.4842 5.98814 15.4842 6.12C15.4842 6.25186 15.4582 6.38242 15.4078 6.50425C15.3573 6.62607 15.2834 6.73676 15.1901 6.83L10.0001 12L15.2201 17.22C15.3925 17.3548 15.5158 17.5424 15.5713 17.754C15.6269 17.9656 15.6114 18.1896 15.5275 18.3916C15.4435 18.5936 15.2956 18.7625 15.1064 18.8724C14.9172 18.9823 14.6972 19.0271 14.4801 19V19Z" fill="black"/>
</svg>
