<svg width="24" height="24" viewBox="0 0 24 24" fill="none" xmlns="http://www.w3.org/2000/svg">
<path d="M6.5 8.66679H2.5C2.22386 8.66679 2 8.87999 2 9.14298V21.5238C2 21.7868 2.22386 22 2.5 22H6.5C6.77614 22 7 21.7868 7 21.5238V9.14298C7 8.87999 6.77614 8.66679 6.5 8.66679Z" fill="black"/>
<path d="M4.48 6.76186C5.84966 6.76186 6.96 5.69588 6.96 4.38093C6.96 3.06598 5.84966 2 4.48 2C3.11033 2 2 3.06598 2 4.38093C2 5.69588 3.11033 6.76186 4.48 6.76186Z" fill="black"/>
<path d="M18.5 21.9995H21.5C21.6326 21.9995 21.7598 21.9493 21.8536 21.86C21.9473 21.7707 22 21.6496 22 21.5233V13.5234C22 9.93296 19.87 8.19012 16.89 8.19012C16.3022 8.16965 15.7164 8.2667 15.1705 8.47503C14.6245 8.68335 14.1304 8.99832 13.72 9.39964C13.6652 9.45994 13.5923 9.50282 13.5112 9.52249C13.43 9.54217 13.3445 9.53771 13.266 9.5097C13.1876 9.4817 13.1201 9.43149 13.0725 9.36585C13.025 9.3002 12.9997 9.22225 13 9.14249C13 9.0162 12.9473 8.89508 12.8536 8.80578C12.7598 8.71648 12.6326 8.66631 12.5 8.66631H9.50001C9.3674 8.66631 9.24022 8.71648 9.14645 8.80578C9.05269 8.89508 9.00001 9.0162 9.00001 9.14249V21.5233C9.00001 21.6496 9.05269 21.7707 9.14645 21.86C9.24022 21.9493 9.3674 21.9995 9.50001 21.9995H12.5C12.6326 21.9995 12.7598 21.9493 12.8536 21.86C12.9473 21.7707 13 21.6496 13 21.5233V14.3805C13 13.7491 13.2634 13.1435 13.7322 12.697C14.2011 12.2505 14.837 11.9996 15.5 11.9996C16.163 11.9996 16.7989 12.2505 17.2678 12.697C17.7366 13.1435 18 13.7491 18 14.3805V21.5233C18 21.6496 18.0527 21.7707 18.1464 21.86C18.2402 21.9493 18.3674 21.9995 18.5 21.9995Z" fill="black"/>
</svg>
