<svg width="1567" height="1374" viewBox="0 0 1567 1374" fill="none" xmlns="http://www.w3.org/2000/svg">
<path fill-rule="evenodd" clip-rule="evenodd" d="M280.803 143.592L278.396 201.523L174.739 247.381L172.332 302.896L42.1484 356.003C42.1484 356.003 3.58363 1024.63 784.648 1367.4C1556.07 1048.78 1527.15 356.003 1527.15 356.003L1411.43 310.136L1409.03 259.445L1300.55 208.754L1298.13 145.999C1298.13 145.999 946.174 6 782.241 6C635.178 6 300.09 136.352 280.803 143.592Z" fill="#FFC700" stroke="black" stroke-width="10.4536" stroke-miterlimit="2.613"/>
<path fill-rule="evenodd" clip-rule="evenodd" d="M331.432 174.969V237.724L227.776 281.175L225.368 341.513L112.064 389.797C112.064 389.797 59.0276 964.292 784.648 1309.47C1483.76 1002.91 1462.07 397.037 1462.07 397.037L1351.17 351.17L1348.77 290.831L1245.1 249.797L1242.7 184.626C1242.7 184.626 931.711 61.5236 782.25 61.5236C630.354 61.5236 331.432 174.969 331.432 174.969Z" fill="#C79B00" stroke="black" stroke-width="10.4536" stroke-miterlimit="2.613"/>
<path fill-rule="evenodd" clip-rule="evenodd" d="M379.644 208.763L377.237 273.934L273.572 312.552L271.164 372.9L153.036 416.341C153.036 416.341 131.342 947.386 784.64 1256.36C1406.61 995.661 1425.89 418.758 1425.89 418.758L1305.36 372.9L1300.54 319.793L1206.51 281.175L1204.12 220.827C1204.12 220.827 919.647 109.798 784.648 109.798C647.234 109.798 379.644 208.763 379.644 208.763Z" fill="#3382C3" stroke="black" stroke-width="10.4536" stroke-miterlimit="2.613"/>
<path fill-rule="evenodd" clip-rule="evenodd" d="M153.036 817.044L172.323 725.319H61.4349L63.8425 817.044H153.036ZM1401.79 817.044H1517.49V727.744H1401.79V817.044Z" fill="#B49421" stroke="black" stroke-width="8.04125" stroke-miterlimit="2.613"/>
<path fill-rule="evenodd" clip-rule="evenodd" d="M852.139 1181.54C984.73 1097.05 1093.21 1012.57 1160.72 918.425C1213.75 848.421 1245.08 800.147 1223.38 708.422C1206.51 631.169 1114.9 609.448 1114.9 609.448C1141.42 592.551 1235.45 532.204 1233.03 450.135C1228.21 343.921 1107.68 271.509 1107.68 271.509C1011.25 211.162 893.129 182.192 849.731 177.368L852.139 1181.54Z" fill="#FFC700" stroke="black" stroke-width="8.04125" stroke-miterlimit="2.613"/>
<path fill-rule="evenodd" clip-rule="evenodd" d="M852.139 182.21C830.444 208.763 811.167 242.557 811.167 242.557L808.75 1135.67L852.139 1183.95V182.21Z" fill="#C79B00" stroke="black" stroke-width="10.4536" stroke-miterlimit="2.613"/>
<path fill-rule="evenodd" clip-rule="evenodd" d="M934.11 597.392V295.664C934.11 295.664 1134.19 353.595 1139.01 452.56C1139.01 452.56 1148.67 558.766 934.11 597.392Z" fill="#3382C3" stroke="black" stroke-width="8.04125" stroke-miterlimit="2.613"/>
<path fill-rule="evenodd" clip-rule="evenodd" d="M934.11 343.939C934.11 343.939 1078.76 384.973 1083.56 467.05C1083.56 467.05 1100.45 524.981 934.11 578.079V594.976C934.11 594.976 1129.38 570.839 1136.6 459.801C1136.6 459.801 1155.89 365.659 934.11 295.664V343.939Z" fill="#C79B00" stroke="black" stroke-width="10.4536" stroke-miterlimit="2.613"/>
<path fill-rule="evenodd" clip-rule="evenodd" d="M938.933 754.298C938.933 754.298 1030.54 667.397 1090.8 677.044C1143.84 684.285 1143.84 756.705 1143.84 756.705C1141.42 887.057 938.933 1019.82 938.933 1019.82V754.298Z" fill="#3382C3" stroke="black" stroke-width="8.04125" stroke-miterlimit="2.613"/>
<path fill-rule="evenodd" clip-rule="evenodd" d="M1059.46 679.461C1059.46 679.461 1182.41 773.602 941.332 961.885V1019.82C941.332 1019.82 1139.01 891.881 1143.84 756.705C1143.85 756.705 1139.02 652.907 1059.46 679.461Z" fill="#C79B00" stroke="black" stroke-width="10.4536" stroke-miterlimit="2.613"/>
<path fill-rule="evenodd" clip-rule="evenodd" d="M314.553 404.286L377.237 442.904C377.237 442.904 418.218 693.941 485.717 763.945L461.606 814.645C461.606 814.645 333.839 785.675 314.553 404.286ZM514.643 285.999L565.272 319.792C565.272 319.792 565.271 594.967 635.178 804.971V906.343C635.178 906.343 512.235 737.383 514.643 285.999ZM721.964 182.21L762.945 232.9V1138.09L721.964 1191.19V182.21Z" fill="#C79B00" stroke="black" stroke-width="8.04125" stroke-miterlimit="2.613"/>
<path fill-rule="evenodd" clip-rule="evenodd" d="M524.291 877.4L456.791 964.292L519.467 942.571C519.467 942.571 536.346 923.258 541.17 916.018C541.161 916.018 529.106 887.057 524.291 877.4Z" fill="#C79B00" stroke="black" stroke-width="10.4536" stroke-miterlimit="2.613"/>
<path fill-rule="evenodd" clip-rule="evenodd" d="M454.375 964.292C341.071 867.734 232.591 561.182 225.359 423.59C249.461 413.934 290.451 404.277 312.145 404.277C312.145 404.277 343.478 645.658 461.606 814.627L490.541 756.696C490.541 756.696 403.755 447.719 423.042 307.719C451.967 295.646 490.541 288.406 514.652 285.99C514.652 285.99 531.522 727.726 635.187 894.279V203.93C659.289 191.857 695.455 184.617 721.973 182.201V1198.42C721.973 1198.42 618.317 1123.6 524.299 877.382L454.375 964.292Z" fill="#FFC700" stroke="black" stroke-width="10.4536" stroke-miterlimit="2.613" stroke-linecap="square"/>
<path fill-rule="evenodd" clip-rule="evenodd" d="M333.839 177.386L377.237 208.763L374.82 271.527L333.839 177.386Z" fill="#B49421" stroke="black" stroke-width="4.65615" stroke-miterlimit="2.613" stroke-linecap="round" stroke-linejoin="round"/>
<path d="M331.432 237.724L374.82 273.935" stroke="black" stroke-width="4.65615" stroke-miterlimit="2.613"/>
<path fill-rule="evenodd" clip-rule="evenodd" d="M230.174 283.591L273.572 310.145L271.164 370.492L230.174 283.591Z" fill="#B49421" stroke="black" stroke-width="4.65615" stroke-miterlimit="2.613" stroke-linecap="round" stroke-linejoin="round"/>
<path d="M222.952 341.522L271.164 372.909" stroke="black" stroke-width="4.65615" stroke-miterlimit="2.613"/>
<path fill-rule="evenodd" clip-rule="evenodd" d="M112.055 392.213L150.629 416.35C150.629 416.35 150.629 447.728 157.86 493.595C157.86 493.595 114.463 394.629 112.055 392.213Z" fill="#B49421" stroke="black" stroke-width="4.65615" stroke-miterlimit="2.613" stroke-linecap="round" stroke-linejoin="round"/>
<path fill-rule="evenodd" clip-rule="evenodd" d="M1447.59 756.705C1348.75 713.255 1139.02 650.491 787.056 650.491C259.118 648.074 46.9722 795.323 46.9722 795.323L8.40753 790.49C8.40753 790.49 6 684.285 6 655.323C8.40752 636.01 37.3421 623.946 37.3421 623.946C288.052 522.564 555.641 508.084 784.657 508.084C1083.58 505.676 1324.65 534.637 1531.98 623.946C1531.98 623.946 1560.91 633.603 1560.91 662.564C1563.32 713.255 1558.51 795.332 1558.51 795.332H1522.34C1522.32 795.323 1498.22 778.426 1447.59 756.705Z" fill="#FFC700"/>
<path d="M1447.59 756.705C1348.75 713.255 1139.02 650.491 787.056 650.491C259.118 648.074 46.9722 795.323 46.9722 795.323L8.40753 790.49C8.40753 790.49 6 684.285 6 655.323C8.40752 636.01 37.3421 623.946 37.3421 623.946C288.052 522.564 555.641 508.084 784.657 508.084C1083.58 505.676 1324.65 534.637 1531.98 623.946C1531.98 623.946 1560.91 633.603 1560.91 662.564C1560.91 713.255 1558.51 795.332 1558.51 795.332H1522.34C1522.32 795.323 1498.22 778.426 1447.59 756.705Z" stroke="black" stroke-width="10.4536" stroke-miterlimit="2.613"/>
<path fill-rule="evenodd" clip-rule="evenodd" d="M1382.49 734.975C1312.59 715.662 1237.85 698.765 1126.97 686.701C1035.37 679.461 922.045 674.637 777.417 674.637H637.586C509.819 679.461 406.162 691.534 321.784 708.431C288.034 715.662 254.285 720.495 225.359 730.152C189.202 739.808 153.036 749.465 124.11 761.529C75.8978 780.842 80.7217 792.915 80.7217 792.915C85.5368 807.396 153.036 807.396 153.036 807.396C157.851 817.053 167.499 833.949 167.499 833.949C-6.07307 831.542 8.38977 790.499 8.38977 790.499C8.38977 776.018 49.3708 756.714 49.3708 756.714C251.868 667.397 526.689 640.852 779.816 643.259C1037.77 645.676 1305.36 655.332 1517.49 756.714C1517.49 756.714 1560.88 778.435 1558.48 800.156C1558.48 800.156 1565.7 833.949 1401.79 836.366C1401.79 836.366 1411.42 819.478 1416.24 804.988C1416.24 804.988 1481.33 802.572 1486.15 788.091C1486.15 788.091 1495.8 773.611 1437.94 754.298C1421.07 747.048 1399.37 739.808 1382.49 734.975Z" fill="#C79B00" stroke="black" stroke-width="10.4536" stroke-miterlimit="2.613"/>
<path fill-rule="evenodd" clip-rule="evenodd" d="M938.933 302.904C938.933 302.904 989.553 322.218 1008.84 331.874C1008.84 331.874 994.368 331.874 989.544 334.282C984.721 339.106 975.073 343.939 965.443 343.939C955.795 346.355 938.924 336.698 938.924 336.698L938.933 302.904Z" fill="#B49421"/>
<path fill-rule="evenodd" clip-rule="evenodd" d="M1240.27 184.626L1204.11 218.42L1206.51 278.767L1240.27 184.626Z" fill="#B49421" stroke="black" stroke-width="4.65615" stroke-miterlimit="2.613" stroke-linecap="round" stroke-linejoin="round"/>
<path d="M1206.51 281.175L1245.08 249.797" stroke="black" stroke-width="4.65615" stroke-miterlimit="2.613"/>
<path fill-rule="evenodd" clip-rule="evenodd" d="M1346.34 293.248L1302.94 317.385L1307.76 372.909L1346.34 293.248Z" fill="#B49421" stroke="black" stroke-width="4.65615" stroke-miterlimit="2.613" stroke-linecap="round" stroke-linejoin="round"/>
<path d="M1348.75 351.179L1307.76 372.909" stroke="black" stroke-width="4.65615" stroke-miterlimit="2.613"/>
<path fill-rule="evenodd" clip-rule="evenodd" d="M1462.06 397.037L1428.32 418.767C1428.32 418.767 1425.9 445.32 1421.08 474.281C1425.89 464.625 1462.06 397.037 1462.06 397.037Z" fill="#B49421" stroke="black" stroke-width="4.65615" stroke-miterlimit="2.613" stroke-linecap="round" stroke-linejoin="round"/>
<path fill-rule="evenodd" clip-rule="evenodd" d="M177.138 742.216L138.573 756.705C138.573 756.705 150.629 792.915 172.323 826.7C172.323 826.7 179.545 812.22 208.48 807.387C208.48 807.396 179.554 747.048 177.138 742.216ZM191.61 737.383L220.535 727.735C237.415 773.602 268.748 821.876 268.748 821.876C256.692 809.803 225.359 804.979 225.359 804.979C225.359 804.979 201.249 761.529 191.61 737.383ZM309.738 708.431C309.738 708.431 333.839 771.186 338.663 776.018C338.663 776.018 350.719 776.018 355.534 773.611C362.765 771.194 372.413 766.371 379.644 766.371C389.283 766.371 415.801 766.371 420.625 761.538C420.625 761.538 398.931 720.504 389.283 696.366C379.644 698.765 341.071 703.598 309.738 708.431ZM403.755 693.941C408.57 708.431 427.857 747.048 437.496 761.529C437.496 761.529 461.606 776.018 471.245 778.426L476.06 761.529C476.06 761.529 454.366 732.568 437.487 689.117C432.681 691.534 408.57 693.941 403.755 693.941ZM480.893 684.285C485.717 701.182 492.948 737.383 495.356 742.216C495.356 742.216 558.04 737.383 567.679 737.383C567.679 737.383 558.04 701.182 553.216 679.461C548.392 681.877 488.125 684.285 480.893 684.285ZM567.679 677.044L582.142 739.808C582.142 739.808 601.429 747.048 613.484 756.705C613.484 756.705 601.429 708.431 596.605 674.637C589.373 677.044 567.679 677.044 567.679 677.044ZM642.41 672.22V725.319C642.41 725.319 656.873 720.495 666.52 722.911C673.752 725.319 683.4 725.319 688.215 725.319C693.03 725.319 712.317 725.319 714.733 727.735V672.22H642.41ZM729.196 672.22L731.603 732.559C731.603 732.559 753.298 761.52 755.714 776.01V672.22H729.196ZM818.389 672.22V763.936C818.389 763.936 842.509 730.152 844.907 730.152V672.22H818.389ZM859.379 672.22V732.559C859.379 732.559 893.12 732.559 902.768 727.735C909.99 722.902 912.415 725.319 919.638 727.735C929.286 730.143 958.203 727.735 963.027 725.319C963.027 725.319 994.369 693.941 1040.16 679.461C1004.03 679.461 859.379 672.22 859.379 672.22ZM1076.34 684.285C1090.81 701.182 1105.28 734.975 1095.64 773.602C1095.64 773.602 1100.46 771.186 1102.86 773.602C1107.68 776.01 1107.68 776.009 1112.51 771.186C1112.51 771.186 1114.9 763.945 1134.2 766.362C1134.2 766.362 1134.2 710.847 1105.27 686.701C1098.03 684.285 1088.39 684.285 1076.34 684.285ZM1151.07 766.362C1151.07 766.362 1196.88 761.529 1211.34 763.945C1220.99 766.362 1220.99 771.186 1220.99 771.186C1220.99 771.186 1225.81 730.151 1213.76 698.765C1206.52 693.941 1139.03 686.701 1129.38 689.117C1134.2 696.358 1153.47 710.838 1151.07 766.362ZM1351.15 727.744C1351.15 727.744 1310.18 814.636 1295.71 831.542C1295.71 831.542 1307.75 829.126 1312.58 826.709C1314.98 824.302 1324.62 812.229 1339.1 812.229C1339.1 812.229 1375.26 744.632 1377.66 734.975L1351.15 727.744Z" fill="#B49421"/>
<path d="M174.73 836.357C161.003 810.236 148.138 783.671 136.157 756.705" stroke="#FFC700" stroke-width="4.02063" stroke-miterlimit="2.613"/>
<path fill-rule="evenodd" clip-rule="evenodd" d="M1392.14 739.808C1392.14 739.808 1370.45 792.915 1358.4 812.229C1358.4 812.229 1372.85 807.396 1396.96 831.542C1396.96 831.542 1423.48 785.675 1435.53 754.298L1392.14 739.808Z" fill="#B49421"/>
<path d="M1394.55 836.357C1425.89 780.842 1433.11 754.298 1433.11 754.298" stroke="#FFC700" stroke-width="4.02063" stroke-miterlimit="2.613"/>
<path d="M153.036 807.396C153.036 807.396 83.1294 809.803 80.7219 795.332C78.3144 785.675 83.1294 776.018 131.342 759.121C232.591 720.504 425.449 672.229 784.64 674.637C1136.6 677.044 1269.2 698.774 1440.36 754.289C1510.27 776.018 1500.63 800.156 1418.67 804.988M1411.42 817.044C1420.86 796.381 1429.7 775.451 1437.94 754.28M160.268 819.469C145.805 795.323 131.342 761.529 131.342 761.529" stroke="black" stroke-width="10.4536" stroke-miterlimit="2.613"/>
<path fill-rule="evenodd" clip-rule="evenodd" d="M442.32 957.052C447.144 961.885 456.783 969.116 456.783 969.116L483.301 959.459L451.959 988.429L423.033 969.107L442.32 957.052ZM333.84 411.526L309.738 399.453C304.914 399.453 290.451 401.87 290.451 401.87L300.09 384.973L353.126 375.316L333.84 411.526ZM492.949 283.591L512.235 281.184C521.874 288.424 536.346 295.664 536.346 295.664L558.04 266.703L485.717 240.149L492.949 283.591ZM702.678 182.21C709.909 179.802 724.372 179.802 724.372 179.802C726.779 184.626 741.242 201.532 741.242 201.532L772.584 179.802L707.493 138.768L702.678 182.21ZM830.436 203.93C842.5 187.033 852.13 174.969 852.13 174.969L881.073 179.793L888.296 148.416L815.982 146.008L830.436 203.93ZM702.678 1183.96C707.493 1193.61 719.548 1198.44 719.548 1198.44C729.187 1186.38 746.066 1164.65 746.066 1164.65L762.937 1220.16L717.132 1215.34L702.678 1183.96ZM861.778 1179.13C856.954 1181.54 849.731 1186.37 849.731 1186.37C837.685 1171.88 825.63 1159.82 825.63 1159.82V1215.33L881.073 1196.02L861.778 1179.13Z" fill="#3382C3"/>
<path d="M1066.88 571.537C1062.01 571.443 1058.57 572.26 1056.54 573.987C1054.9 575.378 1053.64 577.948 1052.75 581.699C1052.46 582.926 1051.43 583.86 1050.18 583.951V583.951C1048.33 584.085 1046.84 582.389 1047.17 580.563C1047.42 579.196 1047.71 577.522 1048.05 575.543C1048.77 571.261 1049.34 567.235 1049.75 563.464C1049.8 563.074 1050.01 562.719 1050.33 562.493V562.493C1050.61 562.292 1050.96 562.207 1051.31 562.257L1069.66 564.895L1098.93 567.955C1100.02 568.07 1100.94 568.834 1101.25 569.89V569.89C1101.51 570.799 1101.28 571.78 1100.64 572.478C1091 583.008 1082.09 593.131 1073.91 602.85C1071.56 605.617 1069.37 608.217 1067.33 610.648C1062.02 616.98 1066.43 626.45 1074.7 626.613L1076.62 626.651C1080.6 626.672 1083.79 625.387 1086.19 622.794C1088.3 620.426 1090.06 616.759 1091.46 611.794C1091.82 610.548 1092.91 609.642 1094.2 609.585V609.585C1096.12 609.501 1097.58 611.26 1097.13 613.126C1097.05 613.435 1096.97 613.76 1096.89 614.103C1096.29 616.543 1095.65 619.527 1094.97 623.054C1094.41 625.978 1093.99 628.777 1093.72 631.451C1093.61 632.5 1093.12 633.474 1092.31 634.156V634.156C1091.48 634.868 1090.38 635.202 1089.29 635.079L1049.44 630.581L1044 630.665C1042.62 630.686 1041.39 629.794 1040.98 628.475V628.475C1040.67 627.476 1040.89 626.388 1041.55 625.58L1073.67 586.521C1078.5 580.646 1074.48 571.783 1066.88 571.537V571.537Z" fill="black"/>
<path d="M1119.4 638.454C1116.73 638.239 1114.72 637.281 1113.36 635.58C1112.11 633.788 1111.58 631.705 1111.77 629.332C1111.98 626.762 1113 624.655 1114.82 623.011C1116.65 621.366 1118.94 620.656 1121.71 620.879C1124.38 621.094 1126.39 622.101 1127.73 623.901C1129.09 625.603 1129.67 627.64 1129.48 630.012C1129.27 632.583 1128.21 634.686 1126.29 636.322C1124.46 637.966 1122.17 638.677 1119.4 638.454Z" fill="black"/>
<path d="M996.454 565.112C991.589 565.303 988.193 566.319 986.268 568.161C984.717 569.645 983.607 572.285 982.937 576.08C982.718 577.322 981.75 578.315 980.499 578.479V578.479C978.66 578.721 977.079 577.114 977.304 575.272C977.472 573.892 977.667 572.205 977.889 570.209C978.361 565.892 978.693 561.84 978.885 558.052C978.905 557.659 979.091 557.293 979.399 557.048V557.048C979.672 556.831 980.017 556.726 980.365 556.756L998.836 558.32L1028.24 559.669C1029.34 559.719 1030.3 560.429 1030.66 561.465V561.465C1030.98 562.357 1030.81 563.35 1030.21 564.084C1021.2 575.157 1012.9 585.783 1005.3 595.962C1003.11 598.862 1001.07 601.585 999.178 604.131C994.245 610.762 999.206 619.959 1007.46 619.639L1009.39 619.564C1013.36 619.354 1016.47 617.885 1018.71 615.157C1020.69 612.67 1022.23 608.907 1023.34 603.868C1023.62 602.604 1024.66 601.636 1025.94 601.504V601.504C1027.85 601.308 1029.41 602.979 1029.07 604.868C1029.01 605.18 1028.95 605.51 1028.89 605.857C1028.44 608.328 1027.97 611.343 1027.5 614.904C1027.1 617.856 1026.85 620.675 1026.73 623.361C1026.69 624.413 1026.25 625.414 1025.49 626.143V626.143C1024.7 626.902 1023.63 627.299 1022.53 627.24L982.483 625.072L977.056 625.473C975.679 625.575 974.399 624.756 973.914 623.463V623.463C973.548 622.484 973.698 621.385 974.314 620.54L1004.1 579.675C1008.58 573.529 1004.06 564.915 996.454 565.112V565.112Z" fill="black"/>
<path d="M905.2 569.483C905.489 564.135 903.801 561.362 900.137 561.164C899.443 561.127 898.695 561.185 897.892 561.341V561.341C897.237 561.387 896.53 560.705 896.635 560.056L897.018 557.708C897.173 556.756 897.95 556.028 898.909 555.923C902.34 555.548 906 555.036 909.889 554.39C913.338 553.741 915.88 553.276 917.513 552.993C918.25 552.865 918.974 553.263 919.272 553.95V553.95C919.456 554.373 919.45 554.851 919.288 555.282C918.238 558.084 917.122 563.657 915.941 572C914.656 581.068 913.782 589.911 913.316 598.527C912.792 608.233 916.492 613.3 924.415 613.727C927.386 613.888 930.197 613.344 932.846 612.097C934.473 611.272 936.353 610.219 938.489 608.937C941.25 607.28 942.951 604.323 943.124 601.107L944.708 571.765C944.869 568.794 944.436 566.684 943.411 565.437C942.386 564.19 940.487 563.491 937.714 563.342L937.368 563.337C935.671 563.317 934.391 561.788 934.669 560.113V560.113C934.877 558.86 935.911 557.911 937.175 557.792C940.91 557.441 944.791 556.957 948.819 556.343C952.51 555.779 955.198 555.367 956.882 555.105C957.62 554.99 958.341 555.387 958.639 556.072V556.072C958.823 556.497 958.815 556.977 958.66 557.414C957.717 560.074 956.68 565.996 955.549 575.181C954.41 585.251 953.519 596.228 952.877 608.113C952.76 610.291 953.213 612.004 954.239 613.252C955.264 614.499 956.717 615.173 958.599 615.275C959.986 615.35 961.336 615.174 962.65 614.749C964.069 614.229 965.19 613.694 966.015 613.143C966.068 613.111 966.121 613.08 966.172 613.049C967.029 612.539 968.235 612.708 968.85 613.493V613.493C969.331 614.106 969.336 614.961 968.836 615.558C968.303 616.192 967.572 617.037 966.642 618.093C965.153 619.9 963.371 621.641 961.294 623.317C959.316 624.998 957.584 625.799 956.098 625.718C948.215 625.293 944.032 621.182 943.549 613.386C943.533 613.133 943.382 612.904 943.152 612.797V612.797C942.934 612.696 942.678 612.718 942.479 612.854C937.655 616.16 933.293 618.825 929.394 620.85C925.508 622.924 922.871 623.924 921.485 623.85C915.146 623.507 910.324 621.757 907.018 618.599C903.811 615.446 902.357 611.096 902.657 605.55L905.2 569.483Z" fill="black"/>
<path d="M826.738 625.963C823.663 625.963 820.34 626.211 816.77 626.707C815.846 626.835 815.006 626.954 814.248 627.062C812.033 627.379 810.073 625.481 810.362 623.262V623.262C810.546 621.854 811.615 620.738 812.99 620.384C816.292 619.535 818.593 618.419 819.894 617.037C821.481 615.251 822.274 612.276 822.274 608.11L822.423 545.625C822.423 542.451 822.026 540.319 821.233 539.228C820.539 538.137 819.101 537.592 816.919 537.592C815.927 537.592 814.935 537.641 813.943 537.74C813.249 537.81 812.7 537.855 812.298 537.876C812.03 537.89 811.784 537.738 811.664 537.497V537.497C811.598 537.365 811.575 537.215 811.598 537.069L811.83 535.611C812.267 532.869 814.746 530.892 817.522 530.988C818.075 531.007 818.668 531.026 819.299 531.046C822.572 531.145 825.845 531.194 829.118 531.194C832.49 531.194 835.912 531.145 839.383 531.046C842.954 530.847 845.384 530.698 846.673 530.599C856.096 530.599 863.336 532.583 868.394 536.55C873.453 540.418 875.982 545.972 875.982 553.213C875.982 558.172 874.444 562.635 871.37 566.602V566.602C868.35 570.628 869.306 579.362 873.31 582.411C874.154 583.053 874.945 583.734 875.684 584.455C879.751 588.423 881.784 593.183 881.784 598.738C881.784 603.796 880.147 608.557 876.874 613.02C873.7 617.384 869.436 620.905 864.08 623.583C858.724 626.162 852.971 627.451 846.822 627.451C844.144 627.451 841.069 627.203 837.598 626.707C831.945 626.211 828.324 625.963 826.738 625.963ZM833.927 566.283C833.804 570.453 837.011 573.982 841.169 574.339V574.339C842.821 574.476 844.335 574.593 845.712 574.688C848.078 574.852 851.693 574.507 853.814 573.446V573.446C856.393 572.057 858.724 569.975 860.807 567.198C862.89 564.321 863.931 560.503 863.931 555.742C863.931 549.394 861.799 544.683 857.534 541.608C853.269 538.534 846.673 536.996 837.747 536.996C836.755 536.996 836.061 537.244 835.664 537.74C835.366 538.137 835.168 539.03 835.069 540.418C834.593 548.026 834.213 556.648 833.927 566.283ZM832.837 609.449C832.837 613.218 834.127 615.896 836.705 617.483C839.284 619.07 843.648 619.863 849.797 619.863C855.748 619.863 860.41 618.227 863.782 614.954C867.254 611.582 868.989 607.069 868.989 601.415C868.989 596.06 867.303 591.696 863.931 588.323C860.725 585.023 856.039 582.753 849.874 581.515C849.231 581.386 848.575 581.337 847.92 581.35L843.032 581.444C837.669 581.547 833.342 585.865 833.227 591.228L832.837 609.449Z" fill="black"/>
<path d="M746.25 616.815C745.925 616.681 745.552 616.723 745.263 616.924C735.304 623.861 729.299 627.341 727.248 627.363C721.595 627.424 716.572 626.189 712.181 623.658C707.788 621.028 704.376 617.345 701.944 612.611C699.512 607.876 698.262 602.434 698.196 596.285C698.119 589.244 699.685 582.73 702.893 576.744C706.201 570.757 710.662 565.997 716.278 562.464C721.991 558.831 728.17 556.979 734.815 556.907V556.907C740.308 556.847 745.034 552.597 744.975 547.104L744.818 532.695C744.76 527.34 742.897 524.682 739.227 524.722C738.533 524.729 737.79 524.837 736.999 525.044V525.044C736.348 525.132 735.598 524.497 735.661 523.843L735.89 521.492C735.984 520.525 736.724 519.747 737.683 519.592C741.432 518.988 745.292 518.231 749.264 517.323C752.703 516.536 755.211 515.957 756.785 515.587C757.505 515.418 758.247 515.772 758.565 516.441V516.441C758.794 516.924 758.765 517.495 758.612 518.008C757.684 521.137 756.913 531.348 756.299 548.639C755.714 567.888 755.54 588.373 755.776 610.092C755.799 612.274 756.363 613.954 757.467 615.132C758.571 616.311 760.065 616.89 761.949 616.869C763.338 616.854 764.674 616.592 765.958 616.082C767.34 615.472 768.424 614.865 769.211 614.261C769.252 614.233 769.292 614.206 769.331 614.179C770.17 613.604 771.41 613.697 772.089 614.455V614.455C772.598 615.025 772.676 615.854 772.254 616.491C771.878 617.057 771.376 617.796 770.747 618.708C769.574 620.308 768.006 622.011 766.042 623.818C764.575 625.238 763.043 626.29 761.446 626.975C760.592 627.342 759.658 627.472 758.73 627.427C752.053 627.102 748.102 623.825 746.877 617.595C746.809 617.248 746.577 616.951 746.25 616.815V616.815ZM745.238 571.31C745.221 569.77 744.396 568.405 742.968 567.828V567.828C741.771 567.246 740.08 566.719 737.892 566.247C735.804 565.773 733.421 565.551 730.743 565.58C724.099 565.652 718.867 567.991 715.049 572.595C711.328 577.099 709.511 583.268 709.596 591.103C709.65 596.062 710.542 600.565 712.272 604.613C714.101 608.66 716.516 611.857 719.517 614.205C722.618 616.552 725.953 617.706 729.523 617.667C731.606 617.645 733.831 617.026 736.198 615.81C738.665 614.593 740.735 613.38 742.408 612.171V612.171C744.467 610.561 745.637 608.085 745.608 605.471L745.238 571.31Z" fill="black"/>
<path d="M647.817 621.014C647.923 619.675 648.957 618.634 650.236 618.224C651.96 617.671 653.152 616.807 653.815 615.632C654.729 613.903 655.081 610.71 654.87 606.053L653.387 573.356C653.239 570.086 652.687 567.778 651.733 566.432C650.778 565.085 649.31 564.456 647.328 564.546C646.536 564.582 645.844 564.663 645.254 564.789C645.188 564.806 645.125 564.822 645.065 564.838C644.569 564.969 643.994 564.837 643.678 564.434V564.434C643.523 564.236 643.444 563.989 643.457 563.738L643.516 562.591C643.61 560.761 644.906 559.218 646.685 558.779C649.503 558.082 652.424 557.301 655.449 556.434C659.053 555.422 661.546 554.714 662.928 554.31C663.31 554.199 663.722 554.277 664.036 554.522V554.522C664.393 554.801 664.567 555.254 664.511 555.704C664.371 556.812 664.204 558.664 664.008 561.258C663.762 564.362 663.745 567.315 663.955 570.116C663.966 570.261 664.043 570.392 664.162 570.473V570.473C664.392 570.63 664.706 570.558 664.847 570.318C667.555 565.725 670.763 561.902 674.472 558.848C678.4 555.691 681.85 554.045 684.822 553.91C685.985 553.858 686.908 553.886 687.589 553.994C687.836 554.034 688.082 554.075 688.33 554.099C688.705 554.135 688.995 554.175 689.198 554.22C689.372 554.257 689.515 554.367 689.628 554.505V554.505C689.821 554.739 689.913 555.039 689.883 555.341C689.73 556.886 689.434 559.722 688.996 563.848C688.694 567.306 688.529 570.551 688.502 573.583C688.489 575.088 687.38 576.37 685.886 576.553V576.553C684.189 576.762 682.688 575.478 682.521 573.776C682.294 571.459 681.948 569.852 681.483 568.955C680.925 567.59 679.853 566.944 678.268 567.015C676.088 567.114 673.803 568.161 671.411 570.156C669.653 571.547 668.018 573.279 666.505 575.354C665.395 576.874 664.916 578.747 664.928 580.629C664.945 583.46 664.954 587.264 664.957 592.043C664.961 598.695 665.005 604.054 665.09 608.121C665.243 611.49 665.842 613.746 666.887 614.89C667.931 616.034 669.841 616.543 672.615 616.418C673.903 616.359 675.189 616.251 676.473 616.094C677.418 615.978 678.149 615.898 678.667 615.856C678.946 615.833 679.197 616.011 679.277 616.279V616.279C679.303 616.366 679.309 616.458 679.295 616.548L679.09 617.849C678.616 620.854 676.093 623.084 673.051 623.123C672.815 623.126 672.573 623.129 672.324 623.132C669.347 623.168 666.273 623.258 663.103 623.402C659.437 623.568 656.12 623.768 653.152 624.002C652.436 624.082 651.783 624.157 651.193 624.226C649.329 624.444 647.669 622.886 647.817 621.014V621.014Z" fill="black"/>
<path d="M602.806 629.193C597.169 629.626 592.068 628.625 587.505 626.19C582.941 623.755 579.233 620.16 576.381 615.405C573.62 610.544 571.993 604.9 571.499 598.472C570.968 591.549 571.965 585.106 574.491 579.143C577.109 573.073 580.913 568.205 585.904 564.539C590.887 560.774 596.592 558.645 603.02 558.151C608.558 557.726 613.609 558.731 618.173 561.166C622.836 563.593 626.547 567.237 629.308 572.098C632.16 576.853 633.833 582.444 634.326 588.872C634.858 595.795 633.815 602.291 631.197 608.361C628.671 614.324 624.917 619.189 619.933 622.953C614.943 626.619 609.234 628.699 602.806 629.193ZM606.401 621.605C611.939 621.18 616.169 618.617 619.09 613.916C622.004 609.117 623.165 602.86 622.573 595.147C622.125 589.312 620.836 584.189 618.707 579.776C616.57 575.265 613.771 571.849 610.31 569.529C606.948 567.2 603.24 566.192 599.185 566.503C593.647 566.929 589.421 569.541 586.507 574.341C583.593 579.14 582.436 585.446 583.036 593.259C583.484 599.093 584.773 604.217 586.902 608.629C589.032 613.041 591.777 616.412 595.139 618.74C598.494 620.969 602.247 621.924 606.401 621.605Z" fill="black"/>
<path d="M536.103 632.794C532.727 634.328 528.753 632.698 527.416 629.24C525.827 625.131 523.642 619.504 520.861 612.357C516.286 600.34 511.376 587.817 506.13 574.786C506.028 574.535 505.775 574.379 505.505 574.402V574.402C505.244 574.424 505.026 574.608 504.96 574.861L489.919 632.78C489.418 634.707 488.064 636.301 486.243 637.107V637.107C482.811 638.625 478.803 636.949 477.446 633.45C475.201 627.66 471.883 619.217 467.49 608.12C461.11 591.743 454.66 575.722 448.141 560.054C447.006 557.265 445.297 555.321 443.013 554.222C440.823 553.079 438.007 552.579 434.565 552.723C434.277 552.735 434.012 552.559 433.918 552.286V552.286C433.892 552.208 433.88 552.125 433.884 552.043L433.94 550.991C434.101 547.967 436.469 545.561 439.495 545.467C440.034 545.45 440.607 545.433 441.213 545.417C444.582 545.228 447.847 544.998 451.009 544.727C455.357 544.355 459.688 543.785 464.003 543.017C467.538 542.305 470.05 541.782 471.537 541.447C472.024 541.337 472.527 541.563 472.763 542.004V542.004C472.851 542.169 472.895 542.353 472.892 542.539L472.873 543.637C472.83 546.214 470.943 548.361 468.426 548.914C465.777 549.497 463.876 550.106 462.723 550.742C461.111 551.676 460.394 553.181 460.572 555.256C460.716 556.936 462.562 562.8 466.111 572.849C469.75 582.791 473.442 592.777 477.189 602.809C480.863 612.387 483.311 618.797 484.534 622.041C484.631 622.298 484.886 622.457 485.16 622.434V622.434C485.416 622.412 485.631 622.232 485.699 621.984L500.696 567.034C501.288 564.866 501.132 562.56 500.253 560.491L498.243 555.762C497.01 552.981 495.3 551.037 493.115 549.93C491.013 548.865 488.177 548.37 484.607 548.444C484.342 548.45 484.093 548.316 483.955 548.091V548.091C483.875 547.959 483.838 547.805 483.85 547.651L483.967 546.109C484.172 543.408 486.307 541.283 489.013 541.193C489.717 541.17 490.485 541.147 491.315 541.125C494.684 540.936 497.949 540.706 501.111 540.435C504.866 540.113 509 539.56 513.512 538.775C517.341 538.033 520.05 537.49 521.64 537.147C522.128 537.041 522.628 537.269 522.864 537.71V537.71C522.952 537.875 522.997 538.061 522.994 538.249L522.975 539.343C522.932 541.92 521.044 544.067 518.525 544.612C515.79 545.204 513.841 545.82 512.677 546.462C511.065 547.396 510.352 548.951 510.538 551.125C510.716 553.2 514.166 563.257 520.888 581.296C527.468 598.957 532.051 611.112 534.635 617.761C534.733 618.012 534.983 618.165 535.252 618.142V618.142C535.512 618.12 535.729 617.933 535.791 617.679C535.903 617.211 536.016 616.743 536.129 616.275C536.366 615.558 536.594 614.742 536.815 613.827C548.381 572.222 554.042 549.986 553.796 547.12C553.635 545.242 552.73 543.976 551.082 543.321C549.433 542.666 546.83 542.491 543.272 542.796L536.296 543.393C536.029 543.416 535.772 543.286 535.632 543.058V543.058C535.555 542.931 535.519 542.783 535.531 542.635L535.641 541.182C535.847 538.478 538.088 536.377 540.799 536.337C541.841 536.321 543.026 536.303 544.356 536.282C548.631 536.214 552.745 536.011 556.698 535.673C560.255 535.368 563.512 535.039 566.468 534.686C567.04 534.618 567.574 534.553 568.072 534.491C570.259 534.219 572.239 536.017 572.101 538.217V538.217C572.002 539.805 570.798 541.069 569.263 541.486C567.72 541.906 566.581 542.445 565.845 543.101C564.727 543.994 563.797 545.915 563.054 548.865L539.612 628.752C539.086 630.546 537.805 632.021 536.103 632.794V632.794Z" fill="black"/>
</svg>
