<svg width="24" height="24" viewBox="0 0 24 24" fill="none" xmlns="http://www.w3.org/2000/svg">
<path d="M17.5 12.75H6.49995C6.30104 12.75 6.11027 12.671 5.96962 12.5303C5.82897 12.3897 5.74995 12.1989 5.74995 12C5.74995 11.8011 5.82897 11.6103 5.96962 11.4697C6.11027 11.329 6.30104 11.25 6.49995 11.25H17.5C17.6989 11.25 17.8896 11.329 18.0303 11.4697C18.1709 11.6103 18.25 11.8011 18.25 12C18.25 12.1989 18.1709 12.3897 18.0303 12.5303C17.8896 12.671 17.6989 12.75 17.5 12.75ZM20.5499 18.81C20.5499 18.6111 20.4709 18.4203 20.3303 18.2797C20.1896 18.139 19.9989 18.06 19.7999 18.06H4.19995C4.00104 18.06 3.81027 18.139 3.66962 18.2797C3.52897 18.4203 3.44995 18.6111 3.44995 18.81C3.44995 19.0089 3.52897 19.1997 3.66962 19.3403C3.81027 19.481 4.00104 19.56 4.19995 19.56H19.7999C19.9981 19.5574 20.1873 19.4776 20.3274 19.3375C20.4675 19.1974 20.5474 19.0081 20.5499 18.81V18.81ZM20.5499 5.19C20.5474 4.99189 20.4675 4.80263 20.3274 4.66253C20.1873 4.52244 19.9981 4.44259 19.7999 4.44H4.19995C4.00104 4.44 3.81027 4.51902 3.66962 4.65967C3.52897 4.80032 3.44995 4.99109 3.44995 5.19C3.44995 5.38891 3.52897 5.57968 3.66962 5.72033C3.81027 5.86098 4.00104 5.94 4.19995 5.94H19.7999C19.9989 5.94 20.1896 5.86098 20.3303 5.72033C20.4709 5.57968 20.5499 5.38891 20.5499 5.19V5.19Z" fill="black"/>
</svg>
