<svg width="24" height="24" viewBox="0 0 24 24" fill="none" xmlns="http://www.w3.org/2000/svg">
<path d="M4.80004 10.59C4.76201 10.7707 4.66029 10.9317 4.51344 11.0437C4.36658 11.1557 4.18438 11.2112 4.00004 11.2H3.83004C3.73071 11.1787 3.63659 11.1379 3.55308 11.08C3.46958 11.0222 3.39836 10.9483 3.34351 10.8628C3.28867 10.7773 3.25129 10.6818 3.23353 10.5818C3.21578 10.4817 3.21799 10.3792 3.24004 10.28C3.72007 8.19341 4.89089 6.33016 6.56262 4.99241C8.23436 3.65466 10.309 2.92085 12.45 2.91C13.719 2.91006 14.9747 3.16703 16.1417 3.66543C17.3086 4.16383 18.3626 4.89334 19.24 5.81V3.06C19.24 2.85313 19.3222 2.65473 19.4685 2.50846C19.6148 2.36218 19.8132 2.28 20.02 2.28C20.2269 2.28 20.4253 2.36218 20.5716 2.50846C20.7179 2.65473 20.8 2.85313 20.8 3.06V7.71C20.7974 7.91513 20.7141 8.11097 20.5681 8.25509C20.4221 8.39921 20.2252 8.48002 20.02 8.48H15.34C15.2309 8.49242 15.1203 8.48164 15.0156 8.44836C14.9109 8.41508 14.8144 8.36005 14.7324 8.28688C14.6505 8.21371 14.5849 8.12406 14.54 8.02378C14.4951 7.9235 14.4719 7.81487 14.4719 7.705C14.4719 7.59513 14.4951 7.48649 14.54 7.38622C14.5849 7.28594 14.6505 7.19628 14.7324 7.12312C14.8144 7.04995 14.9109 6.99492 15.0156 6.96164C15.1203 6.92836 15.2309 6.91758 15.34 6.93H18.23C17.2505 5.88721 16.0055 5.13078 14.6287 4.74187C13.2518 4.35296 11.7951 4.34623 10.4147 4.72242C9.03433 5.0986 7.78242 5.8435 6.79328 6.8772C5.80413 7.9109 5.11508 9.1944 4.80004 10.59V10.59ZM21.13 13.31C20.9286 13.2685 20.7188 13.3082 20.5465 13.4206C20.3742 13.533 20.2533 13.7089 20.21 13.91C19.9201 15.3354 19.2407 16.6526 18.2474 17.7153C17.254 18.778 15.9856 19.5446 14.583 19.93C13.1803 20.3153 11.6983 20.3044 10.3014 19.8984C8.90458 19.4924 7.6476 18.7072 6.67004 17.63H9.67004C9.87691 17.63 10.0753 17.5478 10.2216 17.4015C10.3679 17.2553 10.45 17.0569 10.45 16.85C10.4501 16.748 10.4298 16.6471 10.3905 16.553C10.3512 16.4589 10.2936 16.3736 10.221 16.302C10.1484 16.2303 10.0624 16.1738 9.96778 16.1357C9.8732 16.0976 9.772 16.0787 9.67004 16.08H5.32004C5.11583 16.08 4.91997 16.1611 4.77557 16.3055C4.63117 16.4499 4.55004 16.6458 4.55004 16.85V21.35C4.53762 21.4592 4.5484 21.5697 4.58168 21.6744C4.61496 21.7791 4.66999 21.8756 4.74316 21.9576C4.81633 22.0396 4.90599 22.1052 5.00626 22.1501C5.10654 22.195 5.21517 22.2182 5.32504 22.2182C5.43491 22.2182 5.54355 22.195 5.64382 22.1501C5.7441 22.1052 5.83376 22.0396 5.90693 21.9576C5.98009 21.8756 6.03512 21.7791 6.0684 21.6744C6.10168 21.5697 6.11246 21.4592 6.10004 21.35V19.25C7.32436 20.3853 8.82845 21.1748 10.4582 21.5376C12.0881 21.9004 13.785 21.8235 15.3753 21.3148C16.9656 20.8061 18.3921 19.8838 19.5087 18.6424C20.6254 17.401 21.392 15.8851 21.73 14.25C21.7565 14.1487 21.7618 14.043 21.7455 13.9396C21.7292 13.8362 21.6917 13.7372 21.6354 13.6489C21.579 13.5607 21.5051 13.485 21.4181 13.4267C21.3311 13.3684 21.2331 13.3286 21.13 13.31V13.31Z" fill="black"/>
</svg>
