<svg width="24" height="24" viewBox="0 0 24 24" fill="none" xmlns="http://www.w3.org/2000/svg">
<path d="M10.34 19C10.1414 19.0012 9.94695 18.9431 9.78143 18.8333C9.61591 18.7235 9.48684 18.5669 9.41067 18.3835C9.33451 18.2 9.3147 17.9981 9.35376 17.8033C9.39283 17.6086 9.48902 17.4299 9.63004 17.29L14.85 12L9.63004 6.83C9.53681 6.73676 9.46284 6.62607 9.41238 6.50425C9.36192 6.38242 9.33595 6.25186 9.33595 6.12C9.33595 5.98814 9.36192 5.85757 9.41238 5.73575C9.46284 5.61393 9.53681 5.50324 9.63004 5.41C9.72328 5.31676 9.83397 5.2428 9.95579 5.19234C10.0776 5.14188 10.2082 5.11591 10.34 5.11591C10.4719 5.11591 10.6025 5.14188 10.7243 5.19234C10.8461 5.2428 10.9568 5.31676 11.05 5.41L17 11.34C17.1863 11.5274 17.2908 11.7808 17.2908 12.045C17.2908 12.3092 17.1863 12.5626 17 12.75L11.08 18.67C10.9865 18.7736 10.8724 18.8565 10.745 18.9133C10.6175 18.9701 10.4796 18.9997 10.34 19Z" fill="black"/>
</svg>
