<svg width="24" height="24" viewBox="0 0 24 24" fill="none" xmlns="http://www.w3.org/2000/svg">
<path d="M17.74 3H6.26C5.13018 3 4.04663 3.47522 3.24773 4.32112C2.44882 5.16702 2 6.31431 2 7.51059V16.4894C2 17.6857 2.44882 18.833 3.24773 19.6789C4.04663 20.5248 5.13018 21 6.26 21H17.74C18.2994 21 18.8534 20.8833 19.3702 20.6567C19.8871 20.43 20.3567 20.0977 20.7523 19.6789C21.1479 19.26 21.4616 18.7628 21.6757 18.2155C21.8898 17.6683 22 17.0818 22 16.4894V7.51059C22 6.31431 21.5512 5.16702 20.7523 4.32112C19.9534 3.47522 18.8698 3 17.74 3ZM17.48 9.24706L14.19 12.2012C13.5781 12.7545 12.7997 13.0585 11.995 13.0585C11.1903 13.0585 10.4119 12.7545 9.8 12.2012L6.42 9.24706C6.2675 9.10665 6.17393 8.90785 6.15986 8.69439C6.14579 8.48093 6.21239 8.27029 6.345 8.10882C6.47761 7.94735 6.66537 7.84827 6.86697 7.83338C7.06857 7.81849 7.2675 7.889 7.42 8.02941L10.8 11.0047C11.1418 11.3128 11.5761 11.482 12.025 11.482C12.4739 11.482 12.9082 11.3128 13.25 11.0047L16.55 8.05059C16.7021 7.91519 16.8982 7.84824 17.0963 7.86407C17.2944 7.8799 17.4788 7.97726 17.61 8.13529C17.7266 8.30311 17.7781 8.51181 17.7539 8.71856C17.7297 8.92531 17.6317 9.11441 17.48 9.24706V9.24706Z" fill="black"/>
</svg>
