<svg width="36" height="36" viewBox="0 0 36 36" fill="none" xmlns="http://www.w3.org/2000/svg">
<rect width="36" height="36" rx="18" fill="#F93939"/>
<path fill-rule="evenodd" clip-rule="evenodd" d="M26.4049 20.7649L23.6161 22.2289L24.1489 19.1257L21.8929 16.9249L25.0129 16.4689L26.4049 13.6465L27.7969 16.4713L30.9169 16.9273L28.6609 19.1233L29.1937 22.2265" fill="white"/>
<path fill-rule="evenodd" clip-rule="evenodd" d="M15.6 26.4C20.2392 26.4 24 22.6392 24 18C24 13.3608 20.2392 9.6 15.6 9.6C10.9608 9.6 7.20001 13.3608 7.20001 18C7.20001 22.6392 10.9608 26.4 15.6 26.4ZM18 24C21.312 24 24 21.312 24 18C24 14.688 21.312 12 18 12C14.688 12 12 14.688 12 18C12 21.312 14.688 24 18 24Z" fill="white"/>
</svg>
