<svg width="24" height="24" viewBox="0 0 24 24" fill="none" xmlns="http://www.w3.org/2000/svg">
<path d="M17.8799 8H6.11991C5.96679 7.99681 5.8147 8.02562 5.67337 8.0846C5.53203 8.14357 5.40457 8.23141 5.29914 8.34249C5.19371 8.45357 5.11263 8.58544 5.06111 8.72966C5.00958 8.87387 4.98873 9.02726 4.99991 9.18L5.70991 19.62C5.75599 20.276 6.05276 20.8891 6.53869 21.3322C7.02462 21.7753 7.66244 22.0145 8.31991 22L15.8699 21.91C16.5184 21.9008 17.1392 21.6459 17.6069 21.1967C18.0747 20.7475 18.3545 20.1375 18.3899 19.49L18.9999 9.17C19.0096 9.01807 18.9877 8.86577 18.9355 8.72275C18.8833 8.57973 18.802 8.4491 18.6968 8.33912C18.5915 8.22914 18.4645 8.14222 18.3239 8.08385C18.1833 8.02547 18.0321 7.99692 17.8799 8V8ZM13.4499 17.3H10.5499C10.351 17.3 10.1602 17.221 10.0196 17.0803C9.87892 16.9397 9.79991 16.7489 9.79991 16.55C9.79991 16.3511 9.87892 16.1603 10.0196 16.0197C10.1602 15.879 10.351 15.8 10.5499 15.8H13.4499C13.6488 15.8 13.8396 15.879 13.9802 16.0197C14.1209 16.1603 14.1999 16.3511 14.1999 16.55C14.1999 16.7489 14.1209 16.9397 13.9802 17.0803C13.8396 17.221 13.6488 17.3 13.4499 17.3V17.3ZM14.2299 13.6H9.76991C9.57099 13.6 9.38023 13.521 9.23958 13.3803C9.09892 13.2397 9.01991 13.0489 9.01991 12.85C9.01991 12.6511 9.09892 12.4603 9.23958 12.3197C9.38023 12.179 9.57099 12.1 9.76991 12.1H14.2299C14.4288 12.1 14.6196 12.179 14.7602 12.3197C14.9009 12.4603 14.9799 12.6511 14.9799 12.85C14.9799 13.0489 14.9009 13.2397 14.7602 13.3803C14.6196 13.521 14.4288 13.6 14.2299 13.6V13.6ZM20.9999 6.52C20.9703 6.71604 20.8642 6.89236 20.7049 7.01042C20.5456 7.12848 20.3461 7.17866 20.1499 7.15C14.752 6.40753 9.27783 6.40753 3.87991 7.15H3.74991C3.56177 7.14949 3.3807 7.07828 3.2426 6.95051C3.10451 6.82274 3.01948 6.64774 3.00438 6.46021C2.98927 6.27268 3.0452 6.08632 3.16107 5.9381C3.27693 5.78988 3.44428 5.69061 3.62991 5.66C3.76991 5.66 5.45991 5.37 8.07991 5.2L8.40991 3.51C8.49352 3.08379 8.72289 2.69998 9.05864 2.42444C9.39438 2.14891 9.81557 1.99884 10.2499 2H13.7799C14.2166 2.00166 14.639 2.15526 14.9748 2.43444C15.3105 2.71363 15.5386 3.10097 15.6199 3.53L15.9299 5.21C17.3499 5.3 18.8399 5.44 20.3599 5.67C20.4579 5.68349 20.5522 5.71622 20.6375 5.76631C20.7227 5.8164 20.7973 5.88286 20.8567 5.96186C20.9162 6.04086 20.9595 6.13084 20.9841 6.22663C21.0086 6.32242 21.014 6.42212 20.9999 6.52V6.52Z" fill="black"/>
</svg>
