<svg width="24" height="24" viewBox="0 0 24 24" fill="none" xmlns="http://www.w3.org/2000/svg">
<path d="M3.57132 2.905C1.70016 4.62202 1.36176 7.07776 3.31254 10.8911C5.43511 14.7424 8.53147 17.965 12.2901 20.2349C15.5348 22.0917 17.7444 22.5708 20.0136 21.2531C20.7001 20.9473 21.2638 20.4185 21.6141 19.7521C21.9644 19.0857 22.0808 18.3204 21.9445 17.5795C21.7787 17.3498 21.5921 17.136 21.3872 16.9406L17.406 14.1854C17.2014 14.0736 16.9721 14.015 16.7391 14.015C16.5061 14.015 16.2768 14.0736 16.0723 14.1854C15.5558 14.5951 15.0639 15.0351 14.5992 15.5031C14.5132 15.5915 14.4028 15.652 14.2822 15.6769C14.1615 15.7018 14.0363 15.69 13.9224 15.6429C11.7235 14.1942 9.84082 12.3127 8.38856 10.1125C8.33298 10.0083 8.31452 9.88814 8.33624 9.77197C8.35795 9.6558 8.41855 9.55054 8.508 9.4736C8.8265 9.13419 9.82179 7.95623 9.82179 7.95623C9.93407 7.76174 9.99569 7.54202 10.0009 7.31734C9.97536 7.10686 9.92868 6.8995 9.86161 6.69842L7.1743 2.70535C7.00049 2.46629 6.76804 2.27634 6.49949 2.1539C6.23094 2.03147 5.93541 1.98072 5.64154 2.00657C4.8618 2.02721 4.12014 2.34908 3.57132 2.905V2.905Z" fill="black"/>
</svg>
